<svg xmlns="http://www.w3.org/2000/svg" viewBox="0 0 165 38" fill="none">
  <g fill="#fff" clip-path="url(#a)">
    <path d="M51.587 30.006H37.462c-.322 0-.645.143-.824.43l-1.147 1.506c-.144.179-.215.43-.215.645v.717c0 .25.071.466.215.645l1.147 1.434c.18.287.502.43.825.43h14.124v2.151H37.462a3.54 3.54 0 0 1-1.577-.394 3.199 3.199 0 0 1-1.219-1.076l-1.003-1.434a3.972 3.972 0 0 1-.682-2.15 3.974 3.974 0 0 1 .681-2.151l1.004-1.434a3.484 3.484 0 0 1 1.22-1.076 3.54 3.54 0 0 1 1.576-.394h14.125V30.006Zm4.911 4.911c0 .502.43.932.932.932h14.52V38H57.43c-1.684 0-3.083-1.398-3.083-3.083v-7.062h2.151v7.062Zm29.504-7.062c2.796 0 5.055 2.294 5.055 5.09 0 2.797-2.294 5.09-5.055 5.09h-7.456c-2.797 0-5.055-2.293-5.055-5.09 0-2.796 2.294-5.09 5.055-5.09h7.456Zm9.213 5.055a2.915 2.915 0 0 0 2.904 2.903h7.457a2.914 2.914 0 0 0 2.903-2.904v-5.09h2.187v5.09c0 2.797-2.294 5.091-5.054 5.091h-7.457c-2.796 0-5.055-2.294-5.055-5.09v-5.091h2.152v5.09h-.037Zm31.727-5.02c.537 0 1.075.144 1.577.395.502.25.896.61 1.219 1.075l1.004 1.434c.215.323.394.681.502 1.04.107.359.179.753.179 1.111 0 .359-.072.753-.179 1.112a3.988 3.988 0 0 1-.502 1.04l-1.004 1.433a3.49 3.49 0 0 1-1.219 1.076c-.502.25-1.04.394-1.577.394h-14.125v-2.15h14.125c.322 0 .645-.144.824-.431l1.147-1.434c.144-.18.216-.43.216-.645v-.717a.998.998 0 0 0-.216-.646l-1.147-1.47c-.179-.286-.502-.43-.824-.43h-14.125v-2.115h14.125v-.071ZM35.849 37.32h.036-.072.036Zm92.67.036h.036v-.036s-.036 0-.072.036h.036Zm-92.706-.072s-.035 0-.071-.036h.036l.035.036Zm92.742.036h.036-.072.036Zm.358-.251h.036-.036Zm-93.852-.358s-.036 0-.072-.036l.036.035h.036Zm-.072-.108.036.036-.036-.036Zm-.072-.108s.072.072.072.108c0 0-.072-.072-.072-.108Zm43.664-6.453a2.892 2.892 0 0 0-2.903 2.904 2.915 2.915 0 0 0 2.903 2.904h7.457a2.915 2.915 0 0 0 2.904-2.904 2.915 2.915 0 0 0-2.904-2.904h-7.457ZM34.99 33.34v-.072.072Zm-1.792-.717v-.036.036Zm97.437-1.613h.036-.036Zm-95.788-1.542s.035 0 .071-.036v.036h-.072Zm93.709-.896h-.072.072Zm-92.526-.108h-.036.071-.035Zm92.167-.072h-.035.071-.036Zm-91.916-.035h.071H36.28Zm91.845 0h-.036.072-.036Zm-91.559-.072h.036-.036Zm70.838-21.223c1.04 1.29 1.864 2.366 2.545 3.227 2.868 3.692 2.94 3.692 4.983 3.692 2.044 0 2.223 0 5.127-4.015.609-.824 1.326-1.757 2.151-2.868L127.408 0h4.588l-6.811 9.285c-.824 1.111-1.541 2.043-2.151 2.868-1.577 2.115-2.509 3.405-3.621 4.266a5.239 5.239 0 0 1-2.115 1.004c-.645.143-1.362.215-2.33.215-1.685 0-3.011-.18-4.338-1.147-1.075-.79-2.007-1.972-3.549-3.98-.681-.86-1.505-1.935-2.509-3.19L97.366-.036h4.661l5.449 7.062-.072.036ZM17.029 0c1.684 0 3.01.18 4.337 1.147 1.076.789 2.008 1.972 3.55 3.98.68.86 1.505 1.935 2.509 3.19l7.205 9.32h-4.66l-5.449-7.062c-1.04-1.29-1.864-2.366-2.545-3.226-2.868-3.692-2.94-3.692-4.983-3.692-2.044 0-1.793.143-2.223.502-.681.537-1.577 1.72-2.904 3.513-.61.824-1.326 1.756-2.15 2.868l-5.199 7.098H0l6.812-9.321c.824-1.111 1.541-2.043 2.15-2.868 1.578-2.115 2.51-3.406 3.621-4.266A5.242 5.242 0 0 1 14.698.179 13.68 13.68 0 0 1 17.028 0Zm22.943 6.99h17.207c1.22 0 1.47-.071 1.936-.465.072-.036.108-.108.18-.144.788-.681 1.9-2.115 3.656-4.338.287-.358.61-.752.932-1.147L64.564 0h4.625L66.75 3.155c-.322.43-.645.824-.932 1.183-.61.788-1.147 1.47-1.613 2.043-.896 1.076-1.542 1.864-2.151 2.438.932.896 1.972 2.258 3.764 4.481.287.358.61.753.932 1.183l2.402 3.19h-4.625l-.68-.896c-.323-.394-.646-.788-.933-1.147-1.9-2.402-3.047-3.872-3.835-4.48-.466-.36-.682-.467-1.936-.467H39.936v6.99h-3.692V0h3.692v6.99h.036Zm124.862-3.979h-26.062c-.753 0-1.47.359-1.936.968l-2.653 3.37h30.293v2.94h-30.293l2.653 3.298c.466.61 1.183.968 1.936.968h26.062v3.083h-26.062c-.932 0-1.9-.215-2.76-.646-.861-.43-1.578-1.075-2.151-1.828l-1.9-2.617a5.615 5.615 0 0 1-.897-1.792c-.215-.61-.286-1.29-.286-1.936 0-.645.107-1.29.286-1.936.215-.645.502-1.255.897-1.792l1.9-2.617c.573-.753 1.29-1.399 2.151-1.829a6.122 6.122 0 0 1 2.76-.645h26.062v3.011ZM88.081 0c1.685 0 3.012.18 4.338 1.147 1.076.789 2.008 1.972 3.55 3.98.68.86 1.505 1.935 2.509 3.19h.035l7.206 9.357h-4.66l-5.45-7.027c-1.039-1.29-1.863-2.366-2.545-3.226-2.867-3.693-2.94-3.693-4.983-3.693-2.043 0-2.079 0-4.983 3.693-.68.86-1.505 1.971-2.545 3.226l-5.449 7.027h-4.66l7.205-9.321c1.004-1.29 1.864-2.366 2.51-3.227 1.541-1.971 2.473-3.19 3.549-3.979C85.07.215 86.36 0 88.08 0Z"/>
    <path d="M93.566 17.674h-9.32c-1.542-.108-2.761-1.363-2.761-2.904v-.144a2.953 2.953 0 0 1 2.94-2.94h1.505v-.25c0-.896.395-1.793 1.183-2.366 1.29-.968 3.155-.681 4.123.61l2.94 3.907a2.916 2.916 0 0 1-.574 4.087h-.036Z"/>
  </g>
  <defs>
    <clipPath id="a">
      <path fill="#fff" d="M0 0h164.906v38H0z"/>
    </clipPath>
  </defs>
</svg>
