<svg fill="none" xmlns="http://www.w3.org/2000/svg" viewBox="0 0 216.07 24">
<path d="M11.9997 0.000244141C16.4434 0.000244141 20.3257 2.42099 22.4006 6.01003L11.9997 12L22.4006 17.984C20.3327 21.579 16.4434 23.9997 11.9997 23.9997C5.37015 23.9997 0 18.6296 0 12C0 5.37039 5.37015 0.000244141 11.9997 0.000244141Z" fill="white"/>
<path d="M24.071 0.000244141H35.333V8.49619H36.8144V0.000244141H48.0705V23.9997H36.8144V15.5107H35.333V23.9997H24.071V0.000244141Z" fill="white"/>
<path d="M64.2371 23.9997V16.9916H62.7627V23.9997H49.6858L63.4999 0.000244141L77.3134 23.9997H64.2371Z" fill="white"/>
<path d="M99.5235 8.63013H78.5581V15.6447H99.5235V8.63013Z" fill="white"/>
<path d="M113.052 0.000244141C117.495 0.000244141 121.378 2.42099 123.453 6.01003L113.052 12L123.453 17.984C121.385 21.579 117.495 23.9997 113.052 23.9997C106.423 23.9997 101.052 18.6296 101.052 12C101.052 5.37039 106.423 0.000244141 113.052 0.000244141Z" fill="white"/>
<path d="M125.124 0.000244141H136.386V8.49619H137.867V0.000244141H149.124V23.9997H137.867V15.5107H136.386V23.9997H125.124V0.000244141Z" fill="white"/>
<path d="M163.269 0H152.007V23.9995H163.269V0Z" fill="white"/>
<path d="M178.906 7.33463V0H190.168V24L177.431 16.6723V24H166.168V0L178.906 7.33463Z" fill="white"/>
<path d="M204.057 0.000244141C208.508 0.000244141 212.39 2.42099 214.458 6.01003L204.057 12H216.057C216.057 18.5384 210.843 23.8104 204.403 23.9933C197.637 24.1825 192.057 18.7604 192.057 12C192.057 5.37039 197.434 0.000244141 204.057 0.000244141Z" fill="white"/>
</svg>