<svg fill="none" xmlns="http://www.w3.org/2000/svg" viewBox="-11.5 -11.5 68.96 86.5">
<g clip-path="url(#clip0_2409_6880)">
<path opacity="0.7" d="M42.0548 51.7881C42.6562 52.8087 41.9204 54.0962 40.7359 54.0962H5.25175C4.0672 54.0962 3.33142 52.8087 3.93279 51.7881L7.11692 46.3845C7.56459 45.6249 8.55797 45.4032 9.3181 45.8501C13.3024 48.1928 17.9746 49.5411 22.9709 49.5411C27.9805 49.5411 32.6643 48.1856 36.6555 45.8313C37.4159 45.3828 38.4106 45.604 38.8588 46.3644L42.0548 51.7881ZM21.6748 21.6797C22.267 20.6748 23.7206 20.6748 24.3128 21.6797L34.7627 39.4133C35.1671 40.0997 34.9805 40.9868 34.3009 41.4025C31.0192 43.4098 27.1346 44.5711 22.9709 44.5711C18.8224 44.5711 14.951 43.4183 11.677 41.4244C10.9956 41.0096 10.8078 40.1211 11.2128 39.4338L21.6748 21.6797Z" fill="white"/>
<path d="M22.9711 43.0902C11.8716 43.0902 2.87157 34.0881 2.87158 22.9809C2.87158 11.8736 11.8716 2.87158 22.9711 2.87158C34.0707 2.87158 43.0707 11.8736 43.0707 22.9809C43.0707 34.0881 34.0707 43.0902 22.9711 43.0902Z" stroke="white" stroke-width="5.74273"/>
<path d="M39.7972 68.5681C39.7972 72.2811 37.3611 74.9999 33.8898 74.9999C30.4184 74.9999 28.0027 72.2811 28.0027 68.5681C28.0027 64.8347 30.4184 62.1362 33.8898 62.1362C37.3611 62.1362 39.7972 64.8347 39.7972 68.5681ZM37.1784 68.5681C37.1784 66.1333 35.8792 64.4493 33.8898 64.4493C31.9206 64.4493 30.6417 66.1333 30.6417 68.5681C30.6417 71.0029 31.9206 72.6869 33.8898 72.6869C35.8792 72.6869 37.1784 71.0029 37.1784 68.5681Z" fill="white"/>
<path d="M18.7534 62.3389H27.2187V64.6113H21.3112V67.3301H26.6706V69.5417H21.3112V72.504H27.2187V74.7968H18.7534V62.3389Z" fill="white"/>
<path d="M15.0364 70.3333H12.6612V68.2637H17.5739V69.3594C17.5739 72.8086 15.3003 74.9999 12.1537 74.9999C8.68233 74.9999 6.14478 72.3825 6.14478 68.5681C6.14478 64.7537 8.70263 62.1362 12.0927 62.1362C15.0972 62.1362 16.904 63.8609 17.3709 66.3566H14.7522C14.3055 65.1796 13.5342 64.4493 12.0927 64.4493C10.0425 64.4493 8.78383 66.1739 8.78383 68.5681C8.78383 70.9826 10.0628 72.7072 12.1537 72.7072C13.7574 72.7072 14.7522 71.7536 15.0364 70.3333Z" fill="white"/>
</g>
<defs>
<clipPath id="clip0_2409_6880">
<rect width="45.9418" height="75" fill="white"/>
</clipPath>
</defs>
</svg>