<svg xmlns="http://www.w3.org/2000/svg" fill="none" viewBox="1.75 1.75 151.83 28.5">   <path fill="#fff" d="M15.93 1.778C11.843 1.778 1.778 11.893 1.778 16c0 4.107 10.065 14.222 14.152 14.222S30.082 20.107 30.082 16c0-4.107-10.065-14.222-14.152-14.222Zm-2.206 22.355c-1.723-.472-6.356-8.617-5.887-10.35.47-1.731 8.575-6.388 10.298-5.916 1.724.472 6.357 8.617 5.887 10.35-.47 1.731-8.574 6.388-10.298 5.916ZM50.93 19.153v-.006L42.887 4.242a.351.351 0 0 0-.655.106l-4.005 22.136a.353.353 0 0 0 .346.417h3.098c.17 0 .316-.123.346-.29l2.332-12.917 6.269 12.01a.35.35 0 0 0 .623 0l6.268-12.01 2.332 12.916c.03.168.176.29.346.29h3.099c.22 0 .385-.2.346-.416L59.628 4.348a.351.351 0 0 0-.655-.106l-8.044 14.91ZM76.662 4.659C70.282 4.659 65.285 9.64 65.285 16c0 6.36 4.997 11.345 11.376 11.345 6.362 0 11.346-4.983 11.346-11.345 0-6.361-4.984-11.341-11.346-11.341Zm0 18.888c-4.16 0-7.419-3.315-7.419-7.547 0-4.231 3.26-7.544 7.419-7.544 4.143 0 7.39 3.314 7.39 7.544 0 4.23-3.247 7.547-7.39 7.547ZM105.54 18.603 92.2 4.175a.351.351 0 0 0-.608.24v22.132c0 .195.157.354.352.354h3.224a.352.352 0 0 0 .352-.354V13.375l13.308 14.454c.217.236.61.082.61-.24V5.458a.352.352 0 0 0-.352-.354h-3.195a.352.352 0 0 0-.351.354v13.145ZM112.857 26.9h3.463c.137 0 .261-.08.319-.205l2.594-5.645h8.294l2.535 5.642a.351.351 0 0 0 .32.208h3.758a.353.353 0 0 0 .316-.507l-10.641-22.13a.351.351 0 0 0-.634 0l-10.641 22.13a.354.354 0 0 0 .317.507Zm8.002-9.352 2.577-5.622 2.529 5.622h-5.106ZM142.86 5.104h-5.32a.352.352 0 0 0-.352.354v21.089c0 .195.157.353.352.353h5.32c6.596 0 10.696-4.176 10.696-10.9 0-6.723-4.1-10.896-10.696-10.896Zm0 18.057h-1.716V8.814h1.716c4.282 0 6.738 2.62 6.738 7.187 0 4.55-2.456 7.16-6.738 7.16Z"/> </svg>