<svg fill="none" xmlns="http://www.w3.org/2000/svg" viewBox="5.9 5.9 91.03 26.2"> <path d="M50.8964 18.2018C49.9594 17.8255 48.8151 17.5118 47.4633 17.2602H47.4346C46.1213 17.0287 45.1361 16.8161 44.4795 16.6225C43.8228 16.4301 43.3064 16.1693 42.9295 15.8407C42.5527 15.5126 42.3648 15.0588 42.3648 14.4792C42.3648 13.6295 42.6837 12.9826 43.3208 12.5386C43.9584 12.0945 44.7983 11.8722 45.841 11.8722C46.9808 11.8722 47.9022 12.1617 48.6077 12.7414C49.2407 13.2618 49.6285 13.9231 49.771 14.7239C49.7991 14.8836 49.9341 15.0014 50.0961 15.0031L53.3017 15.0272C53.4982 15.0289 53.6556 14.86 53.6361 14.6641C53.5287 13.5927 53.1753 12.6184 52.5767 11.7418C51.9103 10.7669 50.9929 10.0086 49.8244 9.46741C48.6559 8.92683 47.3283 8.65625 45.841 8.65625C44.4312 8.65625 43.1616 8.91706 42.0316 9.43869C40.9022 9.96032 40.0232 10.6842 39.3953 11.6114C38.7674 12.5386 38.4538 13.5813 38.4538 14.74C38.4538 16.0147 38.7335 17.0385 39.2937 17.8106C39.8538 18.5832 40.5874 19.1675 41.4951 19.5633C42.4027 19.9591 43.4937 20.2728 44.7684 20.5049L44.9132 20.5336C46.2644 20.7846 47.2743 21.007 47.9407 21.2C48.6071 21.3936 49.1327 21.6636 49.5194 22.0111C49.9054 22.3587 50.0984 22.8321 50.0984 23.4307C50.0984 24.2809 49.7509 24.9467 49.0558 25.4293C48.3606 25.9124 47.4622 26.1537 46.3615 26.1537C45.0476 26.1537 43.986 25.8205 43.1748 25.1541C42.4366 24.548 42.0023 23.7696 41.8719 22.8194C41.8495 22.6551 41.7128 22.5305 41.5473 22.5282L38.3458 22.4799C38.151 22.477 37.9936 22.6413 38.0086 22.8355C38.0993 24.004 38.4647 25.057 39.1047 25.9946C39.8095 27.0281 40.7798 27.8392 42.0161 28.4281C43.2518 29.0175 44.6713 29.3116 46.2747 29.3116C47.7615 29.3116 49.0943 29.0416 50.2725 28.5004C51.4502 27.9599 52.3728 27.2113 53.0392 26.2554C53.7056 25.2995 54.0388 24.2229 54.0388 23.0251C54.0388 21.7503 53.7487 20.722 53.1696 19.9396C52.5905 19.1571 51.8322 18.5781 50.8958 18.2012L50.8964 18.2018Z" fill="white"/> <path d="M70.5821 26.0095H70.0817C69.7922 26.0095 69.5647 25.9325 69.401 25.7774C69.2367 25.6234 69.1545 25.3718 69.1545 25.0243V19.4909C69.1545 17.7336 68.5944 16.3962 67.4747 15.4787C66.3545 14.5619 65.0355 14.0942 62.9691 14.0942C61.0182 14.0942 59.4941 14.5182 58.2969 15.3483C57.2054 16.1055 56.5476 17.1424 56.3224 18.4608C56.2873 18.6659 56.4425 18.8538 56.6498 18.8538H59.594C59.7417 18.8538 59.8738 18.7567 59.9129 18.6142C60.0473 18.1265 60.3437 17.7284 60.8022 17.4199C61.333 17.0626 61.9638 16.8839 62.7945 16.8839C64.3611 16.8839 65.475 17.8496 65.475 19.2881V19.7379C65.475 19.9217 65.3262 20.0705 65.1423 20.0705H62.4756C60.3127 20.0705 58.6709 20.4956 57.5512 21.3453C56.431 22.1955 55.8708 23.4025 55.8708 24.9662C55.8708 26.3186 56.3827 27.3808 57.4064 28.1529C58.1745 28.7319 59.0925 29.0663 60.0375 29.2128C60.7597 29.3248 61.5013 29.3656 62.2252 29.2495C62.9835 29.1283 63.5993 28.8158 64.2157 28.37C64.7695 27.9702 65.2314 27.4577 65.6531 26.8327C65.8587 26.4794 66.3982 26.6213 66.3982 27.0298V27.5209C66.3976 28.4137 67.1209 29.1375 68.0136 29.1375H70.5821C70.7659 29.1375 70.9147 28.9887 70.9147 28.8049V26.3415C70.9147 26.1577 70.7659 26.0089 70.5821 26.0089V26.0095ZM65.4755 23.0256C65.4755 23.7403 65.3256 24.363 65.0263 24.8939C64.399 26.0072 63.2764 26.5886 62.0132 26.5886C61.279 26.5886 60.6901 26.4151 60.2461 26.0675C59.8014 25.72 59.5797 25.2563 59.5797 24.6767C59.5797 24.0206 59.8261 23.5134 60.3185 23.1561C60.8108 22.7993 61.5105 22.6201 62.4188 22.6201H65.1429C65.3268 22.6201 65.4755 22.7689 65.4755 22.9527V23.0256Z" fill="white"/> <path d="M81.3149 8.86841H77.4837C75.4627 8.86841 73.8243 10.5068 73.8243 12.5278V14.1358C73.8243 14.3196 73.6755 14.4684 73.4917 14.4684H71.3041C71.1202 14.4684 70.9714 14.6172 70.9714 14.801V17.2931C70.9714 17.477 71.1202 17.6258 71.3041 17.6258H73.4917C73.6755 17.6258 73.8243 17.7745 73.8243 17.9584V28.8057C73.8243 28.9895 73.9731 29.1383 74.1569 29.1383H77.1419C77.3257 29.1383 77.4745 28.9895 77.4745 28.8057V17.9584C77.4745 17.7745 77.6233 17.6258 77.8071 17.6258H81.2856C81.4694 17.6258 81.6182 17.477 81.6182 17.2931V14.801C81.6182 14.6172 81.4694 14.4684 81.2856 14.4684H77.8071C77.6233 14.4684 77.4745 14.3196 77.4745 14.1358V12.691C77.4745 12.3233 77.7727 12.0257 78.1398 12.0257H81.3143C81.4982 12.0257 81.647 11.8769 81.647 11.6931V9.20103C81.647 9.0172 81.4982 8.86841 81.3143 8.86841H81.3149Z" fill="white"/> <path d="M95.9389 17.4637C95.292 16.3825 94.4079 15.5518 93.2883 14.9722C92.168 14.3931 90.8737 14.095 89.4065 14.095C87.9393 14.095 86.6731 14.4173 85.5535 15.0446C84.4332 15.6725 83.5641 16.5606 82.9465 17.7096C82.3284 18.8591 82.0193 20.2057 82.0193 21.751C82.0193 23.2964 82.3381 24.5855 82.9752 25.7345C83.6129 26.8834 84.5252 27.767 85.7126 28.3851C86.9001 29.0033 88.2955 29.3123 89.8988 29.3123C91.1345 29.3123 92.2404 29.0854 93.2159 28.6316C94.1908 28.1783 94.9778 27.555 95.5764 26.7634C96.0888 26.0855 96.4387 25.3433 96.626 24.5373C96.6748 24.3281 96.5168 24.1271 96.302 24.1271H93.3032C93.1596 24.1271 93.0338 24.2201 92.9878 24.3563C92.7764 24.9808 92.4036 25.4742 91.8687 25.8362C91.2695 26.2417 90.5262 26.4445 89.638 26.4445C88.9038 26.4445 88.2621 26.29 87.7118 25.9809C87.1614 25.6724 86.7271 25.2375 86.4083 24.6774C86.2825 24.4563 86.1797 24.2224 86.0975 23.9817C86.0096 23.7232 85.9464 23.4567 85.9028 23.1867C85.8878 23.0924 85.874 22.9971 85.8625 22.9017C85.8401 22.7052 85.9958 22.5335 86.1934 22.5335H96.5346C96.7024 22.5335 96.846 22.4094 96.865 22.2422C96.8793 22.1199 96.8891 21.9952 96.8943 21.8671C96.904 21.6356 96.9086 21.423 96.9086 21.23C96.9086 19.8013 96.5852 18.546 95.9383 17.4643L95.9389 17.4637ZM92.8315 20.0127H86.3549C86.1423 20.0127 85.982 19.8156 86.0291 19.6082C86.1326 19.1538 86.3118 18.7436 86.5669 18.376C86.8949 17.9032 87.32 17.5407 87.8416 17.2896C88.3632 17.0386 88.9326 16.9128 89.5507 16.9128C90.5549 16.9128 91.3856 17.1834 92.0422 17.7239C92.6058 18.1881 92.9769 18.8155 93.1567 19.6065C93.2038 19.8145 93.0447 20.0127 92.8315 20.0127Z" fill="white"/> <path d="M30.5609 18.998H27.7219C26.8739 18.998 26.1868 19.6851 26.1868 20.5331V24.6538C26.1868 25.5017 25.4998 26.1888 24.6518 26.1888H13.357C12.5091 26.1888 11.822 26.8759 11.822 27.7238V30.5629C11.822 31.4108 12.5091 32.0979 13.357 32.0979H25.3056C26.1535 32.0979 26.8308 31.4108 26.8308 30.5629V28.2851C26.8308 27.4371 27.5179 26.8357 28.3658 26.8357H30.5603C31.4083 26.8357 32.0954 26.1486 32.0954 25.3006V20.5152C32.0954 19.6673 31.4083 18.998 30.5603 18.998H30.5609Z" fill="white"/> <path d="M11.8214 13.3579C11.8214 12.51 12.5085 11.8229 13.3564 11.8229H24.6444C25.4923 11.8229 26.1794 11.1358 26.1794 10.2879V7.44882C26.1794 6.60089 25.4923 5.91382 24.6444 5.91382H12.7021C11.8542 5.91382 11.1671 6.60089 11.1671 7.44882V9.63644C11.1671 10.4844 10.48 11.1714 9.6321 11.1714H7.44736C6.59943 11.1714 5.91235 11.8585 5.91235 12.7064V17.497C5.91235 18.345 6.6023 18.9976 7.45023 18.9976H10.2893C11.1372 18.9976 11.8243 18.3105 11.8243 17.4626L11.8214 13.3585V13.3579Z" fill="white"/> <path d="M17.668 16.0137H20.3951C21.2838 16.0137 22.0048 16.7352 22.0048 17.6234V20.3504C22.0048 21.2391 21.2832 21.9601 20.3951 21.9601H17.668C16.7793 21.9601 16.0583 21.2385 16.0583 20.3504V17.6234C16.0583 16.7346 16.7799 16.0137 17.668 16.0137Z" fill="white"/> </svg>