<svg width="290" height="202" viewBox="0 0 290 202" fill="none" xmlns="http://www.w3.org/2000/svg">
<g clip-path="url(#clip0_757_9582)">
<mask id="mask0_757_9582" style="mask-type:alpha" maskUnits="userSpaceOnUse" x="0" y="-51" width="341" height="445">
<rect y="-50.8488" width="340.248" height="444.052" fill="#D9D9D9"/>
</mask>
<g mask="url(#mask0_757_9582)">
<path d="M105.534 23.9923V9.12708" stroke="white" stroke-width="0.6" stroke-miterlimit="10"/>
<path d="M70.0741 28.7167L66.2668 14.344" stroke="white" stroke-width="0.6" stroke-miterlimit="10"/>
<path d="M37.0486 42.5541L29.6997 29.6814" stroke="white" stroke-width="0.6" stroke-miterlimit="10"/>
<path d="M8.67167 64.5564L-1.70972 54.0568" stroke="white" stroke-width="0.6" stroke-miterlimit="10"/>
<path d="M237.837 198.368L252.025 202.219" stroke="white" stroke-width="0.6" stroke-miterlimit="10"/>
<path d="M242.507 162.524H257.204" stroke="white" stroke-width="0.6" stroke-miterlimit="10"/>
<path d="M237.837 126.66L252.025 122.809" stroke="white" stroke-width="0.6" stroke-miterlimit="10"/>
<path d="M224.157 93.2592L236.885 85.8265" stroke="white" stroke-width="0.6" stroke-miterlimit="10"/>
<path d="M202.375 64.5564L212.779 54.0568" stroke="white" stroke-width="0.6" stroke-miterlimit="10"/>
<path d="M174.021 42.5541L181.37 29.6814" stroke="white" stroke-width="0.6" stroke-miterlimit="10"/>
<path d="M140.973 28.7167L144.78 14.344" stroke="white" stroke-width="0.6" stroke-miterlimit="10"/>
<path d="M105.534 23.9923V9.12708" stroke="white" stroke-width="0.6" stroke-miterlimit="10"/>
<path d="M122.003 25.0067L123.751 10.2534" stroke="white" stroke-miterlimit="10"/>
<path d="M86.2329 25.3864L84.1743 10.6555" stroke="white" stroke-miterlimit="10"/>
<path d="M51.7896 35.1063L46.0344 21.4276" stroke="white" stroke-miterlimit="10"/>
<path d="M21.0229 53.5093L11.9475 41.8231" stroke="white" stroke-miterlimit="10"/>
<path d="M241.512 179.19L256.099 180.958" stroke="white" stroke-miterlimit="10"/>
<path d="M241.134 143.011L255.676 140.929" stroke="white" stroke-miterlimit="10"/>
<path d="M231.529 108.175L245.031 102.354" stroke="white" stroke-miterlimit="10"/>
<path d="M213.333 77.062L224.888 67.8832" stroke="white" stroke-miterlimit="10"/>
<path d="M187.767 51.7561L196.599 39.8684" stroke="white" stroke-miterlimit="10"/>
<path d="M156.622 34.0057L162.111 20.2151" stroke="white" stroke-miterlimit="10"/>
<path d="M122.003 25.0067L123.751 10.2534" stroke="white" stroke-miterlimit="10"/>
<path d="M105.513 110.744V53.6768" stroke="white" stroke-miterlimit="10"/>
<path d="M213.81 158.705H157.386" stroke="white" stroke-miterlimit="10"/>
<path d="M53.6406 158.705H-2.80347" stroke="white" stroke-miterlimit="10"/>
<path d="M105.173 164.925C108.539 164.925 111.268 162.165 111.268 158.76C111.268 155.355 108.539 152.595 105.173 152.595C101.806 152.595 99.0771 155.355 99.0771 158.76C99.0771 162.165 101.806 164.925 105.173 164.925Z" stroke="white" stroke-miterlimit="10"/>
<path d="M67.9172 158.697H99.0968" stroke="white" stroke-miterlimit="10"/>
<path d="M67.9172 148.642H82.5546" stroke="white" stroke-miterlimit="10"/>
<path d="M67.9172 142.136H77.9027" stroke="white" stroke-miterlimit="10"/>
<path d="M67.9172 135.641H75.1557" stroke="white" stroke-miterlimit="10"/>
<path d="M67.9172 129.143H73.2107" stroke="white" stroke-miterlimit="10"/>
<path d="M142.888 158.763H111.729" stroke="white" stroke-miterlimit="10"/>
<path d="M142.889 168.821H128.271" stroke="white" stroke-miterlimit="10"/>
<path d="M142.888 175.255H132.902" stroke="white" stroke-miterlimit="10"/>
<path d="M142.888 181.672H135.649" stroke="white" stroke-miterlimit="10"/>
<path d="M142.888 188.085H137.614" stroke="white" stroke-miterlimit="10"/>
</g>
</g>
<defs>
<clipPath id="clip0_757_9582">
<rect width="290" height="202" fill="white"/>
</clipPath>
</defs>
</svg>
