<svg width="198" height="57" viewBox="0 0 198 57" fill="none" xmlns="http://www.w3.org/2000/svg">
<path d="M185.151 40.6806V30.7642C185.151 27.4 186.296 24.9734 189.487 24.9734C192.678 24.9734 193.024 27.471 193.024 29.9657V40.6806H197.15V28.9599C197.15 24.5216 195.312 21.6092 190.802 21.6092C188.166 21.6092 186.225 22.6833 185.148 24.6268V22.0269H181.022V40.6806H185.148H185.151ZM176.382 40.6806V22.0269H172.257V40.6806H176.382ZM176.382 19.7026V15.5428H172.257V19.7026H176.382ZM159.385 37.7682C156.748 37.7682 154.461 35.7224 154.461 31.3893C154.461 27.0561 156.751 24.9734 159.385 24.9734C162.019 24.9734 164.309 27.0874 164.309 31.3893C164.309 35.6911 162.019 37.7682 159.385 37.7682ZM159.385 41.1324C163.929 41.1324 168.577 38.1518 168.577 31.3893C168.577 24.6268 163.929 21.612 159.385 21.612C154.842 21.612 150.193 24.6637 150.193 31.3893C150.193 38.1148 154.842 41.1324 159.385 41.1324ZM139.109 41.1324C143.098 41.1324 146.946 38.6717 147.778 34.3017H143.755C143.201 36.7993 141.223 37.7 139.177 37.7C136.751 37.7 134.392 35.7934 134.392 31.3552C134.392 26.9169 136.682 25.0444 139.282 25.0444C141.536 25.0444 143.235 26.431 143.618 28.4087H147.642C146.914 24.283 143.377 21.612 139.282 21.612C133.699 21.612 130.127 25.8429 130.127 31.3893C130.127 36.9356 133.699 41.1324 139.109 41.1324ZM123.16 29.5168H113.448C113.829 26.0134 116.466 24.837 118.407 24.837C120.833 24.837 123.055 26.6044 123.157 29.5168H123.16ZM118.688 41.1324C123.473 41.1324 126.317 38.0807 127.15 35.1001H123.092C122.365 36.8675 120.7 37.7 118.515 37.7C116.156 37.7 113.73 36.0008 113.451 32.5343H127.357C127.738 26.2918 124.132 21.612 118.41 21.612C113.139 21.612 109.255 25.5985 109.255 31.2159C109.255 36.8334 112.687 41.1324 118.688 41.1324ZM105.672 40.6806V15.5428H101.546V40.6806H105.672ZM96.9031 40.6806V22.0269H92.7774V40.6806H96.9031ZM96.9031 19.7026V15.5428H92.7774V19.7026H96.9031ZM76.7718 40.6806V29.585H89.1518V25.9452H76.7718V19.2196H89.9161V15.5428H72.3677V40.6806H76.7718Z" fill="white"/>
<path fill-rule="evenodd" clip-rule="evenodd" d="M28.3346 56.7316C12.6956 56.7913 -0.0707397 43.9795 0.00029501 28.2325C0.0713297 12.6674 12.7752 -0.0932523 28.5193 0.000513465C44.0389 0.0942792 56.7854 12.8123 56.6632 28.6048C56.5439 44.1017 43.9253 56.7799 28.3318 56.7316" fill="#0090FF"/>
<path fill-rule="evenodd" clip-rule="evenodd" d="M31.8523 26.0729C34.3243 26.4224 36.7367 26.7634 39.2286 27.1157C39.4388 26.3656 39.615 25.7263 39.8196 24.9932C37.2595 24.6124 34.8159 24.2516 32.1905 23.8623C33.0741 20.7368 33.8356 17.7476 34.7875 14.8182C35.1 13.8549 35.8019 12.9485 36.5179 12.2012C37.4556 11.221 38.7541 11.4369 39.5497 12.5166C39.8821 12.9684 40.1946 13.4458 40.5953 13.8322C41.1039 14.3238 41.8569 14.5653 42.3683 14.0851C42.7036 13.7697 42.6951 13.0281 42.7263 12.4712C42.7377 12.2467 42.4763 11.9825 42.2916 11.7779C41.4022 10.772 40.2032 10.414 38.9359 10.36C36.1087 10.2407 34.08 11.6841 32.486 13.8663C30.9062 16.0286 30.2157 18.5716 29.4627 21.0834C29.2439 21.8165 29.0536 22.5609 28.8348 23.3651C26.0815 22.9673 23.4418 22.5837 20.7255 22.1916C20.6289 22.9246 20.5379 23.6151 20.4442 24.3482C23.135 24.763 25.7093 25.158 28.3688 25.57C28.0136 27.0731 27.6812 28.4739 27.3402 29.9145C24.7318 29.5479 22.257 29.2041 19.7679 28.8546C19.6628 29.6587 19.5832 30.2696 19.4895 30.9857C21.9899 31.3692 24.4022 31.7358 26.8316 32.108C26.8316 32.3836 26.86 32.5427 26.8259 32.6876C26.0502 35.995 25.3314 39.3138 24.4619 42.5956C24.047 44.1612 23.3793 45.6699 22.0808 46.7696C21.0124 47.6731 19.8361 47.5225 19.032 46.4002C18.6683 45.8944 18.3643 45.2949 17.8869 44.9397C17.5374 44.6811 16.7561 44.5249 16.5003 44.7323C16.1196 45.042 15.844 45.7239 15.8752 46.2269C15.9036 46.673 16.3298 47.1929 16.722 47.497C18.0432 48.517 19.6003 48.6648 21.1772 48.355C23.8197 47.8351 25.6808 46.1842 26.8344 43.8515C27.7409 42.0159 28.4199 40.0582 29.0621 38.109C29.6446 36.3445 30.0367 34.5175 30.5311 32.6535C33.1253 33.0315 35.6683 33.4008 38.2625 33.7759C38.4756 33.0343 38.6688 32.3637 38.8791 31.642C36.1627 31.2414 33.5742 30.8606 30.9601 30.4742C31.2727 28.9399 31.554 27.5703 31.858 26.0814" fill="white"/>
</svg>
