<svg width="192" height="54" viewBox="0 0 192 54" fill="none" xmlns="http://www.w3.org/2000/svg">
<path d="M84.8709 25.9452C84.0335 25.434 83.0672 25.1784 82.0365 25.1784H71.2787C70.6345 25.1784 70.1191 24.9547 69.6682 24.5393C69.2173 24.092 68.9918 23.5488 68.9918 22.9417C68.9918 22.3346 69.2173 21.7914 69.636 21.376C70.0869 20.9287 70.6345 20.705 71.2465 20.705H86.3203V17.35H71.2465C70.2158 17.35 69.2495 17.6056 68.4121 18.1168C67.5746 18.6281 66.8982 19.2991 66.3829 20.1618C65.8675 20.9926 65.6099 21.9512 65.6099 22.9736C65.6099 23.9961 65.8675 24.9547 66.3829 25.7855C66.8982 26.6162 67.5746 27.2873 68.4121 27.7985C69.2817 28.3097 70.2158 28.5654 71.2465 28.5654H82.0043C82.6485 28.5654 83.1638 28.789 83.6148 29.2364C84.0657 29.6837 84.2589 30.1949 84.2589 30.802C84.2589 31.4091 84.0335 31.9523 83.6148 32.3997C83.1638 32.847 82.6485 33.0387 82.0043 33.0387H65.6099V36.3618H82.0043C83.0672 36.3618 84.0013 36.1062 84.8387 35.5949C85.6761 35.0837 86.3525 34.4127 86.8679 33.5819C87.3832 32.7192 87.6409 31.7926 87.6409 30.7701C87.6409 29.7476 87.3832 28.821 86.8679 27.9583C86.417 27.1275 85.7084 26.4565 84.8709 25.9452Z" fill="white"/>
<path d="M109.64 18.2766C108.577 17.6375 107.417 17.35 106.129 17.35H91.0551V36.3618H94.4048V31.1535H106.097C107.353 31.1535 108.545 30.834 109.608 30.2269C110.67 29.6198 111.508 28.7571 112.12 27.7346C112.764 26.6802 113.054 25.5299 113.054 24.2518C113.054 23.0056 112.732 21.8233 112.12 20.7689C111.54 19.7145 110.703 18.8837 109.64 18.2766ZM94.437 20.6731H106.129C106.805 20.6731 107.417 20.8328 107.933 21.1523C108.48 21.4719 108.899 21.8873 109.221 22.4304C109.543 22.9736 109.704 23.5807 109.704 24.2198C109.704 24.8908 109.543 25.466 109.221 26.0091C108.899 26.5523 108.48 26.9997 107.933 27.3192C107.385 27.6387 106.773 27.7985 106.129 27.7985H94.437V20.6731Z" fill="white"/>
<path d="M121.815 18.0849C120.655 18.5642 119.657 19.2671 118.787 20.1618C117.917 21.0245 117.209 22.047 116.726 23.1973C116.243 24.3476 115.985 25.5618 115.985 26.8719V36.3938H119.335V31.1535H134.634V36.3938H137.984V17.35H125.519C124.23 17.35 122.974 17.6056 121.815 18.0849ZM119.335 26.8719C119.335 25.7535 119.625 24.6991 120.14 23.7725C120.687 22.8458 121.46 22.079 122.427 21.5358C123.361 20.9926 124.424 20.705 125.519 20.705H134.634V27.7985H119.335V26.8719Z" fill="white"/>
<path d="M161.883 29.8435C162.785 29.2044 163.461 28.3736 163.976 27.4151C164.492 26.4565 164.749 25.3701 164.749 24.2518C164.749 23.0056 164.427 21.8233 163.815 20.7689C163.203 19.7145 162.366 18.8837 161.303 18.2766C160.24 17.6375 159.081 17.35 157.792 17.35H142.718V36.3618H146.068V31.1535H155.119L160.659 36.3938H165.265L159.564 30.9299C160.433 30.7062 161.206 30.3228 161.883 29.8435ZM146.1 20.6731H157.825C158.501 20.6731 159.113 20.8328 159.628 21.1523C160.176 21.4719 160.595 21.8873 160.917 22.4304C161.239 22.9736 161.4 23.5807 161.4 24.2198C161.4 24.8908 161.239 25.466 160.917 26.0091C160.595 26.5523 160.176 26.9997 159.628 27.3192C159.081 27.6387 158.469 27.7985 157.825 27.7985H146.133V20.6731H146.1Z" fill="white"/>
<path d="M179.856 25.2103L190.871 17.35H185.782L171.803 27.2233V17.35H168.454V36.3618H171.803V30.9618L177.247 27.0636L186.555 36.3618H191.129L179.856 25.2103Z" fill="white"/>
<path d="M54.5621 28.3419V25.3703H42.9024V28.3419H54.5621Z" fill="white"/>
<path d="M53.467 19.0117L52.4363 16.1999L41.4852 20.162L42.5159 22.9739L53.467 19.0117Z" fill="white"/>
<path d="M49.1832 10.6401L47.2507 8.37151L38.3287 15.8165L40.2613 18.0851L49.1832 10.6401Z" fill="white"/>
<path d="M42.2905 4.24961L39.6815 2.74784L33.8517 12.749L36.4606 14.2508L42.2905 4.24961Z" fill="white"/>
<path d="M33.6262 0.543103L30.663 0.0318604L28.6338 11.407L31.597 11.9183L33.6262 0.543103Z" fill="white"/>
<path d="M26.1859 11.407L24.1567 0.0318604L21.1935 0.543103L23.2227 11.9183L26.1859 11.407Z" fill="white"/>
<path d="M20.968 12.749L15.1382 2.74784L12.5292 4.24961L18.3591 14.2508L20.968 12.749Z" fill="white"/>
<path d="M16.491 15.8165L7.56904 8.37151L5.63649 10.6401L14.5584 18.0851L16.491 15.8165Z" fill="white"/>
<path d="M13.3345 20.194L2.38337 16.2319L1.35268 19.0437L12.3038 23.0058L13.3345 20.194Z" fill="white"/>
<path d="M11.8851 28.3419V25.3703H0.257568V28.3419H11.8851Z" fill="white"/>
<path d="M13.3667 33.5183L12.336 30.7064L1.38489 34.6685L2.41558 37.4804L13.3667 33.5183Z" fill="white"/>
<path d="M16.4587 37.9277L14.5262 35.6591L5.60428 43.104L7.53683 45.3727L16.4587 37.9277Z" fill="white"/>
<path d="M20.968 40.9313L18.3591 39.4295L12.5292 49.4307L15.1382 50.9325L20.968 40.9313Z" fill="white"/>
<path d="M26.1859 42.3052L23.2227 41.794L21.1935 53.1691L24.1567 53.6804L26.1859 42.3052Z" fill="white"/>
<path d="M33.594 53.1691L31.5648 41.794L28.6016 42.3052L30.6308 53.6804L33.594 53.1691Z" fill="white"/>
<path d="M42.3227 49.4946L36.4928 39.4934L33.8839 40.9952L39.7137 50.9964L42.3227 49.4946Z" fill="white"/>
<path d="M49.1832 43.0401L40.2613 35.6271L38.3287 37.8958L47.2507 45.3407L49.1832 43.0401Z" fill="white"/>
<path d="M53.4348 34.7005L42.4837 30.7384L41.453 33.5502L52.4041 37.5123L53.4348 34.7005Z" fill="white"/>
<path d="M15.7179 26.8401C15.7179 20.4496 20.968 15.2413 27.4098 15.2413C33.8517 15.2413 39.1018 20.4496 39.1018 26.8401C39.1018 33.2307 33.8517 38.439 27.4098 38.439C20.968 38.439 15.7179 33.2626 15.7179 26.8401ZM36.1063 26.8401C36.1063 22.0792 32.209 18.2129 27.4098 18.2129C22.6107 18.2129 18.7134 22.0792 18.7134 26.8401C18.7134 31.6011 22.6107 35.4674 27.4098 35.4674C32.209 35.4674 36.1063 31.6011 36.1063 26.8401Z" fill="white"/>
</svg>
