<svg width="60" height="60" viewBox="0 0 60 60" fill="none" xmlns="http://www.w3.org/2000/svg">
<rect x="1" y="1" width="58" height="58" rx="29" stroke="url(#paint0_linear_829_2073)" stroke-width="2"/>
<path d="M30 18.1172C27.5895 18.1172 25.2332 18.832 23.229 20.1712C21.2248 21.5103 19.6627 23.4138 18.7402 25.6407C17.8178 27.8677 17.5764 30.3182 18.0467 32.6824C18.5169 35.0465 19.6777 37.2181 21.3821 38.9226C23.0866 40.627 25.2582 41.7878 27.6223 42.258C29.9865 42.7283 32.437 42.4869 34.664 41.5645C36.8909 40.642 38.7944 39.0799 40.1335 37.0757C41.4727 35.0715 42.1875 32.7151 42.1875 30.3047C42.1841 27.0734 40.899 23.9755 38.6141 21.6906C36.3292 19.4057 33.2313 18.1206 30 18.1172ZM30 40.6172C27.9604 40.6172 25.9666 40.0124 24.2707 38.8792C22.5748 37.7461 21.253 36.1355 20.4725 34.2511C19.692 32.3667 19.4877 30.2932 19.8857 28.2928C20.2836 26.2924 21.2657 24.4549 22.708 23.0126C24.1502 21.5704 25.9877 20.5882 27.9881 20.1903C29.9886 19.7924 32.0621 19.9967 33.9464 20.7772C35.8308 21.5577 37.4414 22.8795 38.5745 24.5754C39.7077 26.2713 40.3125 28.2651 40.3125 30.3047C40.3094 33.0388 39.2219 35.66 37.2886 37.5933C35.3553 39.5266 32.7341 40.6141 30 40.6172ZM28.125 26.5547V34.0547C28.125 34.3033 28.0262 34.5418 27.8504 34.7176C27.6746 34.8934 27.4361 34.9922 27.1875 34.9922C26.9389 34.9922 26.7004 34.8934 26.5246 34.7176C26.3488 34.5418 26.25 34.3033 26.25 34.0547V26.5547C26.25 26.306 26.3488 26.0676 26.5246 25.8918C26.7004 25.716 26.9389 25.6172 27.1875 25.6172C27.4361 25.6172 27.6746 25.716 27.8504 25.8918C28.0262 26.0676 28.125 26.306 28.125 26.5547ZM33.75 26.5547V34.0547C33.75 34.3033 33.6512 34.5418 33.4754 34.7176C33.2996 34.8934 33.0611 34.9922 32.8125 34.9922C32.5639 34.9922 32.3254 34.8934 32.1496 34.7176C31.9738 34.5418 31.875 34.3033 31.875 34.0547V26.5547C31.875 26.306 31.9738 26.0676 32.1496 25.8918C32.3254 25.716 32.5639 25.6172 32.8125 25.6172C33.0611 25.6172 33.2996 25.716 33.4754 25.8918C33.6512 26.0676 33.75 26.306 33.75 26.5547Z" fill="url(#paint1_linear_829_2073)"/>
<defs>
<linearGradient id="paint0_linear_829_2073" x1="0" y1="30" x2="60" y2="30" gradientUnits="userSpaceOnUse">
<stop stop-color="#1EBFFF"/>
<stop offset="1" stop-color="#0090FF"/>
</linearGradient>
<linearGradient id="paint1_linear_829_2073" x1="17.8125" y1="30.3047" x2="42.1875" y2="30.3047" gradientUnits="userSpaceOnUse">
<stop stop-color="#1EBFFF"/>
<stop offset="1" stop-color="#0090FF"/>
</linearGradient>
</defs>
</svg>
