<svg width="60" height="60" viewBox="0 0 60 60" fill="none" xmlns="http://www.w3.org/2000/svg">
<rect x="1" y="1" width="58" height="58" rx="29" stroke="url(#paint0_linear_829_2184)" stroke-width="2"/>
<path d="M35.366 21.3378C33.9087 19.802 32.2687 18.4506 30.4828 17.3136C30.337 17.226 30.1701 17.1797 30 17.1797C29.8299 17.1797 29.663 17.226 29.5172 17.3136C27.7313 18.4506 26.0913 19.802 24.634 21.3378C21.3973 24.7362 19.6875 28.4851 19.6875 32.18C19.6875 34.915 20.774 37.538 22.708 39.472C24.6419 41.406 27.265 42.4925 30 42.4925C32.735 42.4925 35.3581 41.406 37.292 39.472C39.226 37.538 40.3125 34.915 40.3125 32.18C40.3125 28.4851 38.6027 24.7362 35.366 21.3378ZM26.25 36.8675C26.25 33.6249 28.8902 31.3269 30 30.5042C31.1109 31.3245 33.75 33.6249 33.75 36.8675C33.75 37.862 33.3549 38.8159 32.6516 39.5191C31.9484 40.2224 30.9946 40.6175 30 40.6175C29.0054 40.6175 28.0516 40.2224 27.3483 39.5191C26.6451 38.8159 26.25 37.862 26.25 36.8675ZM35.3051 38.7343C35.5169 38.1347 35.6251 37.5034 35.625 36.8675C35.625 31.7112 30.6926 28.689 30.4828 28.5636C30.337 28.476 30.1701 28.4297 30 28.4297C29.8299 28.4297 29.663 28.476 29.5172 28.5636C29.3074 28.689 24.375 31.7112 24.375 36.8675C24.3749 37.5034 24.4831 38.1347 24.6949 38.7343C23.7168 37.9447 22.9279 36.9463 22.3859 35.8122C21.8438 34.678 21.5625 33.437 21.5625 32.18C21.5625 28.1476 23.9531 24.7796 25.9594 22.6655C27.1826 21.384 28.5369 20.2344 30 19.2354C31.4633 20.2341 32.8176 21.3838 34.0406 22.6655C37.6746 26.4964 38.4375 29.9534 38.4375 32.18C38.4375 33.437 38.1562 34.678 37.6141 35.8122C37.0721 36.9463 36.2832 37.9447 35.3051 38.7343Z" fill="url(#paint1_linear_829_2184)"/>
<defs>
<linearGradient id="paint0_linear_829_2184" x1="0" y1="30" x2="60" y2="30" gradientUnits="userSpaceOnUse">
<stop stop-color="#1EBFFF"/>
<stop offset="1" stop-color="#0090FF"/>
</linearGradient>
<linearGradient id="paint1_linear_829_2184" x1="19.6875" y1="29.8361" x2="40.3125" y2="29.8361" gradientUnits="userSpaceOnUse">
<stop stop-color="#1EBFFF"/>
<stop offset="1" stop-color="#0090FF"/>
</linearGradient>
</defs>
</svg>
