<svg width="60" height="60" viewBox="0 0 60 60" fill="none" xmlns="http://www.w3.org/2000/svg">
<rect x="1" y="1" width="58" height="58" rx="29" stroke="url(#paint0_linear_829_2168)" stroke-width="2"/>
<path d="M38.4375 22.8047V34.9922C38.4375 35.2408 38.3387 35.4793 38.1629 35.6551C37.9871 35.8309 37.7486 35.9297 37.5 35.9297C37.2514 35.9297 37.0129 35.8309 36.8371 35.6551C36.6613 35.4793 36.5625 35.2408 36.5625 34.9922V25.0676L23.1633 38.468C22.9874 38.6439 22.7488 38.7427 22.5 38.7427C22.2512 38.7427 22.0126 38.6439 21.8367 38.468C21.6608 38.2921 21.562 38.0535 21.562 37.8047C21.562 37.5559 21.6608 37.3173 21.8367 37.1414L35.2371 23.7422H25.3125C25.0639 23.7422 24.8254 23.6434 24.6496 23.4676C24.4738 23.2918 24.375 23.0533 24.375 22.8047C24.375 22.556 24.4738 22.3176 24.6496 22.1418C24.8254 21.966 25.0639 21.8672 25.3125 21.8672H37.5C37.7486 21.8672 37.9871 21.966 38.1629 22.1418C38.3387 22.3176 38.4375 22.556 38.4375 22.8047Z" fill="url(#paint1_linear_829_2168)"/>
<defs>
<linearGradient id="paint0_linear_829_2168" x1="0" y1="30" x2="60" y2="30" gradientUnits="userSpaceOnUse">
<stop stop-color="#1EBFFF"/>
<stop offset="1" stop-color="#0090FF"/>
</linearGradient>
<linearGradient id="paint1_linear_829_2168" x1="21.562" y1="30.3049" x2="38.4375" y2="30.3049" gradientUnits="userSpaceOnUse">
<stop stop-color="#1EBFFF"/>
<stop offset="1" stop-color="#0090FF"/>
</linearGradient>
</defs>
</svg>
