<svg width="60" height="60" viewBox="0 0 60 60" fill="none" xmlns="http://www.w3.org/2000/svg">
<rect x="1" y="1" width="58" height="58" rx="29" stroke="url(#paint0_linear_829_2149)" stroke-width="2"/>
<path d="M38.1645 37.1449C38.3394 37.3206 38.4377 37.5585 38.4377 37.8064C38.4377 38.0544 38.3394 38.2923 38.1645 38.468C38.0367 38.5934 35.018 41.5547 30 41.5547C25.6184 41.5547 22.4379 38.9297 20.625 36.8848V39.6797C20.625 39.9283 20.5262 40.1668 20.3504 40.3426C20.1746 40.5184 19.9361 40.6172 19.6875 40.6172C19.4389 40.6172 19.2004 40.5184 19.0246 40.3426C18.8488 40.1668 18.75 39.9283 18.75 39.6797V34.0547C18.75 33.806 18.8488 33.5676 19.0246 33.3918C19.2004 33.216 19.4389 33.1172 19.6875 33.1172H25.3125C25.5611 33.1172 25.7996 33.216 25.9754 33.3918C26.1512 33.5676 26.25 33.806 26.25 34.0547C26.25 34.3033 26.1512 34.5418 25.9754 34.7176C25.7996 34.8934 25.5611 34.9922 25.3125 34.9922H21.4969C22.9406 36.791 25.8984 39.6797 30 39.6797C34.2188 39.6797 36.8133 37.1648 36.8391 37.1391C37.0156 36.9642 37.2544 36.8665 37.503 36.8676C37.7515 36.8687 37.9894 36.9685 38.1645 37.1449ZM40.3125 19.9922C40.0639 19.9922 39.8254 20.091 39.6496 20.2668C39.4738 20.4426 39.375 20.681 39.375 20.9297V23.7246C37.5621 21.6797 34.3816 19.0547 30 19.0547C24.982 19.0547 21.9633 22.016 21.8367 22.1414C21.6605 22.317 21.5612 22.5554 21.5608 22.8042C21.5604 23.053 21.6588 23.2917 21.8344 23.468C22.01 23.6442 22.2484 23.7434 22.4972 23.7439C22.7459 23.7443 22.9847 23.6459 23.1609 23.4703C23.1867 23.4445 25.7812 20.9297 30 20.9297C34.1016 20.9297 37.0594 23.8184 38.5031 25.6172H34.6875C34.4389 25.6172 34.2004 25.716 34.0246 25.8918C33.8488 26.0676 33.75 26.306 33.75 26.5547C33.75 26.8033 33.8488 27.0418 34.0246 27.2176C34.2004 27.3934 34.4389 27.4922 34.6875 27.4922H40.3125C40.5611 27.4922 40.7996 27.3934 40.9754 27.2176C41.1512 27.0418 41.25 26.8033 41.25 26.5547V20.9297C41.25 20.681 41.1512 20.4426 40.9754 20.2668C40.7996 20.091 40.5611 19.9922 40.3125 19.9922Z" fill="url(#paint1_linear_829_2149)"/>
<defs>
<linearGradient id="paint0_linear_829_2149" x1="0" y1="30" x2="60" y2="30" gradientUnits="userSpaceOnUse">
<stop stop-color="#1EBFFF"/>
<stop offset="1" stop-color="#0090FF"/>
</linearGradient>
<linearGradient id="paint1_linear_829_2149" x1="18.75" y1="30.3047" x2="41.25" y2="30.3047" gradientUnits="userSpaceOnUse">
<stop stop-color="#1EBFFF"/>
<stop offset="1" stop-color="#0090FF"/>
</linearGradient>
</defs>
</svg>
