<svg width="60" height="60" viewBox="0 0 60 60" fill="none" xmlns="http://www.w3.org/2000/svg">
<rect x="1" y="1" width="58" height="58" rx="29" stroke="url(#paint0_linear_829_2127)" stroke-width="2"/>
<path d="M34.4133 27.218L31.3254 30.3047L34.4133 33.3914C34.5004 33.4785 34.5695 33.5819 34.6166 33.6957C34.6638 33.8095 34.688 33.9315 34.688 34.0547C34.688 34.1779 34.6638 34.2998 34.6166 34.4137C34.5695 34.5275 34.5004 34.6309 34.4133 34.718C34.3262 34.8051 34.2228 34.8742 34.109 34.9213C33.9952 34.9684 33.8732 34.9927 33.75 34.9927C33.6268 34.9927 33.5048 34.9684 33.391 34.9213C33.2772 34.8742 33.1738 34.8051 33.0867 34.718L30 31.6301L26.9133 34.718C26.8262 34.8051 26.7228 34.8742 26.609 34.9213C26.4952 34.9684 26.3732 34.9927 26.25 34.9927C26.1268 34.9927 26.0048 34.9684 25.891 34.9213C25.7772 34.8742 25.6738 34.8051 25.5867 34.718C25.4996 34.6309 25.4305 34.5275 25.3834 34.4137C25.3362 34.2998 25.312 34.1779 25.312 34.0547C25.312 33.9315 25.3362 33.8095 25.3834 33.6957C25.4305 33.5819 25.4996 33.4785 25.5867 33.3914L28.6746 30.3047L25.5867 27.218C25.4108 27.0421 25.312 26.8035 25.312 26.5547C25.312 26.3059 25.4108 26.0673 25.5867 25.8914C25.7626 25.7155 26.0012 25.6167 26.25 25.6167C26.4988 25.6167 26.7374 25.7155 26.9133 25.8914L30 28.9793L33.0867 25.8914C33.1738 25.8043 33.2772 25.7352 33.391 25.6881C33.5048 25.6409 33.6268 25.6167 33.75 25.6167C33.8732 25.6167 33.9952 25.6409 34.109 25.6881C34.2228 25.7352 34.3262 25.8043 34.4133 25.8914C34.5004 25.9785 34.5695 26.0819 34.6166 26.1957C34.6638 26.3095 34.688 26.4315 34.688 26.5547C34.688 26.6779 34.6638 26.7998 34.6166 26.9137C34.5695 27.0275 34.5004 27.1309 34.4133 27.218ZM42.1875 30.3047C42.1875 32.7151 41.4727 35.0715 40.1335 37.0757C38.7944 39.0799 36.8909 40.642 34.664 41.5645C32.437 42.4869 29.9865 42.7283 27.6223 42.258C25.2582 41.7878 23.0866 40.627 21.3821 38.9226C19.6777 37.2181 18.5169 35.0465 18.0467 32.6824C17.5764 30.3182 17.8178 27.8677 18.7402 25.6407C19.6627 23.4138 21.2248 21.5103 23.229 20.1712C25.2332 18.832 27.5895 18.1172 30 18.1172C33.2313 18.1206 36.3292 19.4057 38.6141 21.6906C40.899 23.9755 42.1841 27.0734 42.1875 30.3047ZM40.3125 30.3047C40.3125 28.2651 39.7077 26.2713 38.5745 24.5754C37.4414 22.8795 35.8308 21.5577 33.9464 20.7772C32.0621 19.9967 29.9886 19.7924 27.9881 20.1903C25.9877 20.5882 24.1502 21.5704 22.708 23.0126C21.2657 24.4549 20.2836 26.2924 19.8857 28.2928C19.4877 30.2932 19.692 32.3667 20.4725 34.2511C21.253 36.1355 22.5748 37.7461 24.2707 38.8792C25.9666 40.0124 27.9604 40.6172 30 40.6172C32.7341 40.6141 35.3553 39.5266 37.2886 37.5933C39.2219 35.66 40.3094 33.0388 40.3125 30.3047Z" fill="url(#paint1_linear_829_2127)"/>
<defs>
<linearGradient id="paint0_linear_829_2127" x1="0" y1="30" x2="60" y2="30" gradientUnits="userSpaceOnUse">
<stop stop-color="#1EBFFF"/>
<stop offset="1" stop-color="#0090FF"/>
</linearGradient>
<linearGradient id="paint1_linear_829_2127" x1="17.8125" y1="30.3047" x2="42.1875" y2="30.3047" gradientUnits="userSpaceOnUse">
<stop stop-color="#1EBFFF"/>
<stop offset="1" stop-color="#0090FF"/>
</linearGradient>
</defs>
</svg>
