<svg width="60" height="60" viewBox="0 0 60 60" fill="none" xmlns="http://www.w3.org/2000/svg">
<rect x="1" y="1" width="58" height="58" rx="29" stroke="url(#paint0_linear_829_2117)" stroke-width="2"/>
<path d="M40.0383 36.5935L36.2883 40.3435C36.1124 40.5194 35.8738 40.6182 35.625 40.6182C35.3762 40.6182 35.1376 40.5194 34.9617 40.3435C34.7858 40.1676 34.687 39.929 34.687 39.6802C34.687 39.4314 34.7858 39.1928 34.9617 39.0169L37.1121 36.8677H20.625C20.3764 36.8677 20.1379 36.7689 19.9621 36.5931C19.7863 36.4173 19.6875 36.1789 19.6875 35.9302C19.6875 35.6816 19.7863 35.4431 19.9621 35.2673C20.1379 35.0915 20.3764 34.9927 20.625 34.9927H37.1121L34.9617 32.8435C34.7858 32.6676 34.687 32.429 34.687 32.1802C34.687 31.9314 34.7858 31.6928 34.9617 31.5169C35.1376 31.341 35.3762 31.2422 35.625 31.2422C35.8738 31.2422 36.1124 31.341 36.2883 31.5169L40.0383 35.2669C40.1254 35.354 40.1946 35.4574 40.2418 35.5712C40.2889 35.685 40.3132 35.807 40.3132 35.9302C40.3132 36.0534 40.2889 36.1754 40.2418 36.2892C40.1946 36.403 40.1254 36.5064 40.0383 36.5935ZM23.7117 29.0935C23.8876 29.2694 24.1262 29.3682 24.375 29.3682C24.6238 29.3682 24.8624 29.2694 25.0383 29.0935C25.2142 28.9176 25.313 28.679 25.313 28.4302C25.313 28.1814 25.2142 27.9428 25.0383 27.7669L22.8879 25.6177H39.375C39.6236 25.6177 39.8621 25.5189 40.0379 25.3431C40.2137 25.1673 40.3125 24.9288 40.3125 24.6802C40.3125 24.4316 40.2137 24.1931 40.0379 24.0173C39.8621 23.8415 39.6236 23.7427 39.375 23.7427H22.8879L25.0383 21.5935C25.2142 21.4176 25.313 21.179 25.313 20.9302C25.313 20.6814 25.2142 20.4428 25.0383 20.2669C24.8624 20.091 24.6238 19.9922 24.375 19.9922C24.1262 19.9922 23.8876 20.091 23.7117 20.2669L19.9617 24.0169C19.8746 24.104 19.8054 24.2074 19.7582 24.3212C19.711 24.435 19.6868 24.557 19.6868 24.6802C19.6868 24.8034 19.711 24.9254 19.7582 25.0392C19.8054 25.153 19.8746 25.2564 19.9617 25.3435L23.7117 29.0935Z" fill="url(#paint1_linear_829_2117)"/>
<defs>
<linearGradient id="paint0_linear_829_2117" x1="0" y1="30" x2="60" y2="30" gradientUnits="userSpaceOnUse">
<stop stop-color="#1EBFFF"/>
<stop offset="1" stop-color="#0090FF"/>
</linearGradient>
<linearGradient id="paint1_linear_829_2117" x1="19.6868" y1="30.3052" x2="40.3132" y2="30.3052" gradientUnits="userSpaceOnUse">
<stop stop-color="#1EBFFF"/>
<stop offset="1" stop-color="#0090FF"/>
</linearGradient>
</defs>
</svg>
