<svg width="60" height="60" viewBox="0 0 60 60" fill="none" xmlns="http://www.w3.org/2000/svg">
<rect x="1" y="1" width="58" height="58" rx="29" stroke="url(#paint0_linear_829_2160)" stroke-width="2"/>
<path d="M27.1875 19.9922H21.5625C21.0652 19.9922 20.5883 20.1897 20.2367 20.5414C19.885 20.893 19.6875 21.3699 19.6875 21.8672V27.4922C19.6875 27.9895 19.885 28.4664 20.2367 28.818C20.5883 29.1696 21.0652 29.3672 21.5625 29.3672H27.1875C27.6848 29.3672 28.1617 29.1696 28.5133 28.818C28.865 28.4664 29.0625 27.9895 29.0625 27.4922V21.8672C29.0625 21.3699 28.865 20.893 28.5133 20.5414C28.1617 20.1897 27.6848 19.9922 27.1875 19.9922ZM27.1875 27.4922H21.5625V21.8672H27.1875V27.4922ZM38.4375 19.9922H32.8125C32.3152 19.9922 31.8383 20.1897 31.4867 20.5414C31.135 20.893 30.9375 21.3699 30.9375 21.8672V27.4922C30.9375 27.9895 31.135 28.4664 31.4867 28.818C31.8383 29.1696 32.3152 29.3672 32.8125 29.3672H38.4375C38.9348 29.3672 39.4117 29.1696 39.7633 28.818C40.115 28.4664 40.3125 27.9895 40.3125 27.4922V21.8672C40.3125 21.3699 40.115 20.893 39.7633 20.5414C39.4117 20.1897 38.9348 19.9922 38.4375 19.9922ZM38.4375 27.4922H32.8125V21.8672H38.4375V27.4922ZM27.1875 31.2422H21.5625C21.0652 31.2422 20.5883 31.4397 20.2367 31.7914C19.885 32.143 19.6875 32.6199 19.6875 33.1172V38.7422C19.6875 39.2395 19.885 39.7164 20.2367 40.068C20.5883 40.4196 21.0652 40.6172 21.5625 40.6172H27.1875C27.6848 40.6172 28.1617 40.4196 28.5133 40.068C28.865 39.7164 29.0625 39.2395 29.0625 38.7422V33.1172C29.0625 32.6199 28.865 32.143 28.5133 31.7914C28.1617 31.4397 27.6848 31.2422 27.1875 31.2422ZM27.1875 38.7422H21.5625V33.1172H27.1875V38.7422ZM38.4375 31.2422H32.8125C32.3152 31.2422 31.8383 31.4397 31.4867 31.7914C31.135 32.143 30.9375 32.6199 30.9375 33.1172V38.7422C30.9375 39.2395 31.135 39.7164 31.4867 40.068C31.8383 40.4196 32.3152 40.6172 32.8125 40.6172H38.4375C38.9348 40.6172 39.4117 40.4196 39.7633 40.068C40.115 39.7164 40.3125 39.2395 40.3125 38.7422V33.1172C40.3125 32.6199 40.115 32.143 39.7633 31.7914C39.4117 31.4397 38.9348 31.2422 38.4375 31.2422ZM38.4375 38.7422H32.8125V33.1172H38.4375V38.7422Z" fill="url(#paint1_linear_829_2160)"/>
<defs>
<linearGradient id="paint0_linear_829_2160" x1="0" y1="30" x2="60" y2="30" gradientUnits="userSpaceOnUse">
<stop stop-color="#1EBFFF"/>
<stop offset="1" stop-color="#0090FF"/>
</linearGradient>
<linearGradient id="paint1_linear_829_2160" x1="19.6875" y1="30.3047" x2="40.3125" y2="30.3047" gradientUnits="userSpaceOnUse">
<stop stop-color="#1EBFFF"/>
<stop offset="1" stop-color="#0090FF"/>
</linearGradient>
</defs>
</svg>
