<svg width="60" height="60" viewBox="0 0 60 60" fill="none" xmlns="http://www.w3.org/2000/svg">
<rect x="1" y="1" width="58" height="58" rx="29" stroke="url(#paint0_linear_829_2176)" stroke-width="2"/>
<path d="M38.1633 23.4685L24.7629 36.8677H34.6875C34.9361 36.8677 35.1746 36.9665 35.3504 37.1423C35.5262 37.3181 35.625 37.5566 35.625 37.8052C35.625 38.0539 35.5262 38.2923 35.3504 38.4681C35.1746 38.6439 34.9361 38.7427 34.6875 38.7427H22.5C22.2514 38.7427 22.0129 38.6439 21.8371 38.4681C21.6613 38.2923 21.5625 38.0539 21.5625 37.8052V25.6177C21.5625 25.3691 21.6613 25.1306 21.8371 24.9548C22.0129 24.779 22.2514 24.6802 22.5 24.6802C22.7486 24.6802 22.9871 24.779 23.1629 24.9548C23.3387 25.1306 23.4375 25.3691 23.4375 25.6177V35.5423L36.8367 22.1419C36.9238 22.0548 37.0272 21.9857 37.141 21.9386C37.2548 21.8915 37.3768 21.8672 37.5 21.8672C37.6232 21.8672 37.7452 21.8915 37.859 21.9386C37.9728 21.9857 38.0762 22.0548 38.1633 22.1419C38.2504 22.229 38.3195 22.3324 38.3666 22.4462C38.4138 22.56 38.438 22.682 38.438 22.8052C38.438 22.9284 38.4138 23.0504 38.3666 23.1642C38.3195 23.278 38.2504 23.3814 38.1633 23.4685Z" fill="url(#paint1_linear_829_2176)"/>
<defs>
<linearGradient id="paint0_linear_829_2176" x1="0" y1="30" x2="60" y2="30" gradientUnits="userSpaceOnUse">
<stop stop-color="#1EBFFF"/>
<stop offset="1" stop-color="#0090FF"/>
</linearGradient>
<linearGradient id="paint1_linear_829_2176" x1="21.5625" y1="30.3049" x2="38.438" y2="30.3049" gradientUnits="userSpaceOnUse">
<stop stop-color="#1EBFFF"/>
<stop offset="1" stop-color="#0090FF"/>
</linearGradient>
</defs>
</svg>
