<svg width="54" height="22" viewBox="0 0 54 22" fill="none" xmlns="http://www.w3.org/2000/svg">
<g clip-path="url(#clip0_377_1219)">
<path fill-rule="evenodd" clip-rule="evenodd" d="M10.6911 0.0971181C4.78822 0.0618286 0.0268039 4.83949 -0.000373105 10.6704C-0.0275501 16.5665 4.75833 21.3658 10.6231 21.3441C16.4689 21.3631 21.2004 16.6153 21.2439 10.8116C21.2901 4.89378 16.5097 0.132408 10.6911 0.0971181ZM15.8819 5.37154C15.6889 5.55071 15.409 5.46112 15.2188 5.27653C15.0693 5.13266 14.9524 4.9535 14.8274 4.78248C14.5285 4.37801 14.042 4.29657 13.6914 4.66575C13.4224 4.94536 13.1615 5.28468 13.0419 5.64572C12.6832 6.74241 12.3978 7.86081 12.0689 9.03351C13.0528 9.1801 13.9686 9.31583 14.928 9.45699C14.8519 9.73116 14.7839 9.97004 14.7051 10.2524C13.773 10.1193 12.8652 9.99176 11.9412 9.86146C11.8271 10.4207 11.7238 10.931 11.6042 11.5065C12.5826 11.6504 13.5555 11.7942 14.572 11.9435C14.4931 12.215 14.4225 12.4647 14.341 12.7443C13.368 12.6032 12.4141 12.4647 11.4412 12.3236C11.2564 13.0212 11.1096 13.7053 10.8895 14.3677C10.6476 15.0979 10.3948 15.8308 10.0551 16.5176C9.62302 17.3917 8.92457 18.0106 7.9326 18.2034C7.34015 18.3201 6.75856 18.2631 6.26122 17.883C6.11446 17.769 5.95412 17.5736 5.94325 17.408C5.93237 17.2207 6.03565 16.9628 6.17697 16.8488C6.27209 16.7701 6.5656 16.8298 6.69605 16.9275C6.87542 17.0605 6.98956 17.2858 7.12545 17.4758C7.42711 17.8966 7.86738 17.9536 8.26688 17.6143C8.75335 17.2017 9.00338 16.637 9.16101 16.0507C9.48713 14.821 9.75618 13.5777 10.047 12.3399C10.0606 12.2856 10.047 12.2259 10.047 12.1227C9.13655 11.9843 8.23155 11.8458 7.29394 11.7019C7.32927 11.4332 7.35917 11.2052 7.39993 10.9039C8.33482 11.0342 9.26156 11.1645 10.2399 11.3002C10.3677 10.7627 10.4927 10.2361 10.6258 9.67415C9.62845 9.51942 8.66367 9.37283 7.6554 9.2181C7.69073 8.94393 7.72606 8.68604 7.76139 8.41187C8.78053 8.55846 9.76977 8.70233 10.8025 8.85163C10.884 8.55032 10.9547 8.27071 11.0389 7.99654C11.3216 7.05458 11.5798 6.10448 12.1722 5.29282C12.7701 4.47573 13.5311 3.93553 14.591 3.97897C15.0666 3.99797 15.515 4.1337 15.8493 4.50831C15.9172 4.58703 16.0178 4.68476 16.0123 4.76891C16.0015 4.97793 16.0042 5.25482 15.8792 5.37426L15.8819 5.37154Z" fill="white"/>
</g>
<g clip-path="url(#clip1_377_1219)">
<path d="M37.1554 0.0974121L32.5195 2.82432L42.7353 8.6698L47.3384 6.03805L37.1554 0.0974121Z" fill="white"/>
<path d="M48.2275 0.159668L43.6899 2.8207L48.2384 5.52565L52.9581 2.84998L48.2275 0.159668Z" fill="white"/>
<path d="M43.1943 9.46413V14.9106L47.7974 12.191V6.81409L43.1943 9.46413Z" fill="white"/>
<path d="M48.7195 6.28334L53.3008 3.62598V15.3828L43.1943 21.3052V15.9868L48.7341 12.6852L48.7195 6.28334Z" fill="white"/>
<path d="M42.2505 9.44947L42.2287 14.9326L36.6598 11.803V18.2012L32.0566 15.5512V3.58203L42.2505 9.44947Z" fill="white"/>
<path d="M37.6147 13.4062L42.2507 15.9794V21.3417L37.6147 18.721V13.4062Z" fill="white"/>
</g>
<defs>
<clipPath id="clip0_377_1219">
<rect width="21.2443" height="21.2443" fill="white" transform="translate(0 0.0974121)"/>
</clipPath>
<clipPath id="clip1_377_1219">
<rect width="21.2443" height="21.2443" fill="white" transform="translate(32.0566 0.0974121)"/>
</clipPath>
</defs>
</svg>
