<svg width="180" height="55" viewBox="0 0 180 55" fill="none" xmlns="http://www.w3.org/2000/svg">
<path d="M39.0554 3.51008C38.7933 1.15325 34.9931 0.272679 34.5738 0.169082C34.1545 0.0654849 30.6165 -0.763291 26.3446 2.50001C22.0728 5.76332 20.2644 13.2481 20.2644 13.2481L19.8713 14.854H19.321C15.9266 14.854 12.6709 16.1847 10.2682 18.5542C7.86559 20.9237 6.51231 24.1383 6.50536 27.4928V27.9848C6.51175 30.4727 7.25793 32.9038 8.65115 34.9759C10.0444 37.048 12.0232 38.6698 14.3415 39.6395C14.2366 40.2611 14.1318 40.7273 14.0794 40.9862C13.5552 43.5503 12.5855 46.9948 11.4586 49.3776C10.3317 51.7603 9.04752 52.8222 7.73713 53.1848C7.29995 53.3142 6.83482 53.3197 6.39465 53.2006C5.95449 53.0815 5.55699 52.8427 5.2474 52.5115C4.9067 52.2007 3.62252 50.2064 3.62252 50.2064C3.38023 49.8647 3.04465 49.598 2.65488 49.4375C2.26512 49.2771 1.83722 49.2293 1.42107 49.2999C1.23762 49.3259 -0.0989816 49.7143 0.00584936 51.5013C0.267927 53.8582 4.06805 54.7646 4.48737 54.8424C4.9067 54.9201 8.44474 55.7747 12.7166 52.5115C16.9885 49.2481 18.7968 41.7632 18.7968 41.7632L19.0589 40.6236H19.7927C23.187 40.6236 26.4428 39.2929 28.8455 36.9234C31.248 34.554 32.6014 31.3393 32.6082 27.9848V27.4928C32.6062 24.9768 31.8444 22.5188 30.4205 20.4333C28.9964 18.3479 26.975 16.7297 24.6149 15.7863L24.9818 14.0251C25.506 11.4871 26.4756 8.01655 27.6026 5.65972C28.7295 3.30289 30.0137 2.18922 31.3241 1.82663C31.7612 1.69728 32.2264 1.69181 32.6665 1.81087C33.1068 1.92991 33.5042 2.16868 33.8139 2.50001C34.1545 2.8108 35.4387 4.80505 35.4387 4.80505C35.681 5.14679 36.0166 5.41344 36.4063 5.57393C36.7961 5.73442 37.224 5.78214 37.6402 5.71152C37.8498 5.68561 39.1864 5.29713 39.0554 3.51008ZM9.38822 27.9848V27.4928C9.40161 24.9114 10.4381 22.438 12.2753 20.603C14.1125 18.768 16.6043 17.7176 19.2161 17.677L17.5126 24.9029C17.4602 25.0842 16.2809 30.1345 16.2809 30.1345L14.918 36.7906C13.2568 35.9787 11.8585 34.7239 10.8813 33.1677C9.90409 31.6115 9.3869 29.8163 9.38822 27.9848ZM29.7254 27.4928V27.9848C29.7254 29.2739 29.4686 30.5503 28.9693 31.7412C28.4702 32.9322 27.7386 34.0142 26.8162 34.9257C25.8939 35.8372 24.7989 36.5602 23.5938 37.0535C22.3887 37.5468 21.0971 37.8006 19.7927 37.8006H19.714L22.6756 24.9029C23.121 22.9086 23.5929 20.6036 24.0122 18.6093C25.7178 19.4037 27.1601 20.6603 28.1715 22.2328C29.1829 23.8055 29.7217 25.6294 29.7254 27.4928Z" fill="white"/>
<path d="M56.5097 24.3331V8.48273H68.0149V11.0468H59.5498V15.2942H67.1762V17.8583H59.5498V24.3331H56.5097Z" fill="white"/>
<path d="M70.9502 10.3216V7.62805H73.8069V10.3216H70.9502ZM70.9502 24.333V12.1863H73.8069V24.333H70.9502Z" fill="white"/>
<path d="M77.2924 24.333V7.62805H80.149V24.333H77.2924Z" fill="white"/>
<path d="M88.9549 24.6179C87.8243 24.6535 86.7014 24.4227 85.6789 23.9445C84.8107 23.4747 84.1207 22.7383 83.7134 21.8467C83.2678 20.9144 83.0582 19.6971 83.0582 18.2726C83.0582 16.8481 83.2678 15.605 83.7134 14.6727C84.1139 13.7831 84.8064 13.0529 85.6789 12.6007C86.695 12.1017 87.821 11.8614 88.9549 11.9014C89.9843 11.8699 91.0044 12.1019 91.9164 12.5747C92.7374 13.0287 93.3828 13.7393 93.7509 14.5949C94.144 15.5014 94.3537 16.6668 94.3537 18.1172V18.946H85.9672C85.9908 19.5995 86.1145 20.2457 86.3341 20.8626C86.5125 21.3418 86.8436 21.7508 87.2776 22.028C87.8052 22.2894 88.3913 22.4142 88.9811 22.3906C89.3172 22.3876 89.6516 22.3441 89.977 22.261C90.2761 22.1722 90.5528 22.0222 90.7895 21.8208C91.0346 21.6315 91.2246 21.3813 91.3399 21.0957C91.4826 20.7778 91.5542 20.4333 91.5494 20.0856H94.3537C94.3747 20.782 94.2312 21.4737 93.9344 22.1057C93.6783 22.6623 93.2811 23.144 92.7812 23.5043C92.2732 23.8871 91.6946 24.1685 91.0777 24.333C90.3867 24.5236 89.6724 24.6194 88.9549 24.6179ZM86.0196 16.9776H91.366C91.377 16.5407 91.3241 16.1046 91.2088 15.6827C91.1021 15.36 90.9331 15.061 90.7108 14.8021C90.511 14.5689 90.2469 14.3979 89.9507 14.3101C89.6304 14.2018 89.2935 14.1493 88.9549 14.1546C88.4252 14.1443 87.8989 14.2412 87.4086 14.4395C87.003 14.645 86.6731 14.9711 86.4652 15.3719C86.2259 15.8785 86.0753 16.4213 86.0196 16.9776Z" fill="white"/>
<path d="M102.373 24.6179C101.268 24.6543 100.17 24.423 99.176 23.9445C98.3225 23.4718 97.6501 22.7347 97.2627 21.8467C96.8434 20.9144 96.6338 19.6971 96.6338 18.2726C96.6338 16.8481 96.8434 15.605 97.289 14.6727C97.6617 13.782 98.3387 13.0488 99.2021 12.6007C100.181 12.1039 101.273 11.8631 102.373 11.9014C103.119 11.8918 103.862 11.9966 104.575 12.2122C105.177 12.3931 105.732 12.7025 106.2 13.1186C106.673 13.5331 107.034 14.0586 107.248 14.6467C107.502 15.3171 107.626 16.0288 107.615 16.7445H104.706C104.725 16.2566 104.635 15.7703 104.444 15.3201C104.292 14.9584 104.013 14.6637 103.657 14.4914C103.321 14.2888 102.942 14.1655 102.55 14.1308C102.158 14.096 101.763 14.1509 101.396 14.2911C101.028 14.4313 100.699 14.653 100.432 14.9393C100.165 15.2255 99.9686 15.5685 99.8574 15.9417C99.6377 16.6456 99.5402 17.3812 99.569 18.1172V18.428C99.5437 19.1638 99.641 19.8989 99.8574 20.6035C100.007 21.1249 100.33 21.5811 100.775 21.8984C101.267 22.2085 101.843 22.3621 102.426 22.3388C102.891 22.3556 103.353 22.2483 103.762 22.028C104.114 21.83 104.397 21.5323 104.575 21.1734C104.764 20.7316 104.854 20.2543 104.837 19.7748H107.615C107.624 20.4736 107.5 21.1678 107.248 21.8208C107.027 22.3992 106.678 22.9212 106.226 23.3488C105.753 23.7783 105.189 24.097 104.575 24.2812C103.866 24.5183 103.121 24.6322 102.373 24.6179Z" fill="white"/>
<path d="M115.975 24.6179C114.811 24.6497 113.655 24.4195 112.594 23.9446C111.705 23.4853 110.996 22.7474 110.576 21.8468C110.09 20.7182 109.857 19.4987 109.895 18.2727C109.895 16.7963 110.131 15.605 110.576 14.6727C110.988 13.7736 111.701 13.0419 112.594 12.6007C113.649 12.1052 114.808 11.8654 115.975 11.9015C117.338 11.9015 118.465 12.1345 119.356 12.6007C120.25 13.0419 120.962 13.7736 121.374 14.6727C121.819 15.605 122.055 16.7963 122.055 18.2727C122.092 19.4987 121.86 20.7182 121.374 21.8468C120.955 22.7474 120.245 23.4853 119.356 23.9446C118.297 24.4248 117.139 24.6554 115.975 24.6179ZM115.975 22.313C116.607 22.3336 117.233 22.1813 117.783 21.8726C118.264 21.5749 118.617 21.1146 118.779 20.5777C119.008 19.8841 119.113 19.1571 119.094 18.428V18.0914C119.113 17.3624 119.008 16.6354 118.779 15.9418C118.609 15.409 118.257 14.9512 117.783 14.6467C117.233 14.3381 116.607 14.1858 115.975 14.2065C115.342 14.1787 114.714 14.3316 114.167 14.6467C113.684 14.9484 113.323 15.4061 113.145 15.9418C112.917 16.6354 112.81 17.3624 112.83 18.0914V18.428C112.81 19.1571 112.917 19.8841 113.145 20.5777C113.317 21.1165 113.68 21.5761 114.167 21.8726C114.714 22.1878 115.342 22.3406 115.975 22.313Z" fill="white"/>
<path d="M124.938 10.3216V7.62805H127.795V10.3216H124.938ZM124.938 24.333V12.1863H127.795V24.333H124.938Z" fill="white"/>
<path d="M131.307 24.3331V12.1863H133.691L133.927 13.792H134.085C134.384 13.4324 134.717 13.1028 135.081 12.8079C135.477 12.5209 135.921 12.3019 136.391 12.1604C136.912 11.9779 137.462 11.8902 138.015 11.9015C138.728 11.8956 139.433 12.0367 140.086 12.3158C140.694 12.6008 141.191 13.0735 141.501 13.6625C141.877 14.4278 142.058 15.2727 142.025 16.1231V24.3331H139.142V16.641C139.154 16.2806 139.101 15.9211 138.986 15.5792C138.901 15.3116 138.747 15.0705 138.539 14.8798C138.343 14.6906 138.099 14.5565 137.832 14.4914C137.524 14.4157 137.207 14.3808 136.888 14.3877C136.4 14.3755 135.918 14.5014 135.5 14.7503C135.089 14.9922 134.753 15.3418 134.53 15.7605C134.271 16.2187 134.144 16.7381 134.163 17.2626V24.3331H131.307Z" fill="white"/>
<path d="M56.5097 46.3474V30.4971H68.0149V33.0611H59.5498V37.3085H67.1762V39.8726H59.5498V46.3474H56.5097Z" fill="white"/>
<path d="M75.72 46.6323C74.556 46.6641 73.3999 46.4337 72.3392 45.959C71.4502 45.4995 70.7405 44.7618 70.3212 43.861C69.8495 42.9287 69.6398 41.7114 69.6398 40.287C69.6398 38.8626 69.8495 37.6193 70.3212 36.687C70.7333 35.7879 71.4458 35.0563 72.3392 34.615C73.3938 34.1195 74.5528 33.8797 75.72 33.9158C77.0828 33.9158 78.2097 34.1489 79.1008 34.615C79.9942 35.0563 80.7067 35.7879 81.1188 36.687C81.5643 37.6193 81.8002 38.8107 81.8002 40.287C81.8377 41.513 81.6052 42.7325 81.1188 43.861C80.6995 44.7618 79.9898 45.4995 79.1008 45.959C78.0418 46.4391 76.8845 46.6696 75.72 46.6323ZM75.72 44.3273C76.3524 44.348 76.9781 44.1956 77.5284 43.887C78.0007 43.5809 78.3524 43.1237 78.5242 42.592C78.7523 41.8985 78.8587 41.1714 78.8387 40.4423V40.1057C78.8587 39.3766 78.7523 38.6496 78.5242 37.9561C78.3451 37.4282 77.9951 36.9731 77.5284 36.6611C76.9781 36.3524 76.3524 36.2001 75.72 36.2208C75.087 36.1931 74.4593 36.3459 73.9117 36.6611C73.4295 36.9627 73.0682 37.4205 72.8896 37.9561C72.6615 38.6496 72.5551 39.3766 72.5751 40.1057V40.4423C72.5551 41.1714 72.6615 41.8985 72.8896 42.592C73.0621 43.1308 73.4249 43.5904 73.9117 43.887C74.4593 44.2021 75.087 44.355 75.72 44.3273Z" fill="white"/>
<path d="M88.588 46.6322C87.4086 46.6322 86.439 46.3214 85.7051 45.674C84.9713 45.0265 84.6044 43.9387 84.6044 42.4106V34.2006H87.461V41.8927C87.4559 42.2509 87.5001 42.6081 87.5921 42.9545C87.6867 43.2172 87.8388 43.4561 88.0377 43.6539C88.2483 43.8379 88.4996 43.971 88.7715 44.0423C89.0708 44.1195 89.3796 44.1544 89.6888 44.146C90.178 44.1657 90.662 44.0393 91.0777 43.7834C91.5032 43.5394 91.8489 43.1798 92.0736 42.7474C92.3208 42.2941 92.4471 41.786 92.4405 41.2711V34.2006H95.271V46.3474H92.9123L92.6763 44.7417H92.5191C92.2347 45.1136 91.8996 45.4447 91.5232 45.7258C91.1245 46.0161 90.6824 46.2434 90.2129 46.3992C89.6872 46.562 89.1387 46.6407 88.588 46.6322Z" fill="white"/>
<path d="M98.7828 46.3474V34.2007H101.168L101.404 35.8064H101.561C101.859 35.4468 102.193 35.1171 102.557 34.8223C103.419 34.231 104.443 33.9146 105.492 33.9158C106.204 33.9099 106.909 34.0511 107.562 34.3302C108.17 34.6151 108.666 35.0878 108.978 35.6769C109.354 36.4421 109.534 37.2871 109.502 38.1374V46.3474H106.619V38.6553C106.63 38.2949 106.577 37.9354 106.462 37.5935C106.377 37.326 106.224 37.0849 106.016 36.8942C105.819 36.7049 105.575 36.5708 105.309 36.5057C105 36.4301 104.683 36.3952 104.365 36.4021C103.877 36.3899 103.395 36.5157 102.976 36.7646C102.571 37.0144 102.237 37.362 102.006 37.7748C101.759 38.2374 101.633 38.7537 101.639 39.277V46.3474H98.7828Z" fill="white"/>
<path d="M117.181 46.6323C116.269 46.6506 115.371 46.4174 114.586 45.9589C113.816 45.4644 113.228 44.7378 112.909 43.887C112.489 42.9287 112.306 41.7374 112.306 40.2611C112.267 39.0337 112.472 37.8106 112.909 36.6611C113.236 35.8147 113.822 35.0904 114.586 34.5891C115.319 34.1445 116.163 33.9112 117.023 33.9158C117.544 33.9204 118.062 33.9813 118.57 34.0971C119.011 34.2123 119.429 34.4053 119.801 34.6668C120.158 34.9245 120.468 35.2397 120.719 35.5993H120.849V29.6424H123.706V46.3474H121.348L121.112 44.7417H120.955C120.573 45.3498 120.028 45.8424 119.382 46.1661C118.693 46.4813 117.94 46.6405 117.181 46.6323ZM118.071 44.1978C118.639 44.2298 119.202 44.0751 119.67 43.7575C120.099 43.4413 120.411 42.9958 120.561 42.4884C120.778 41.8374 120.876 41.1532 120.849 40.4683V40.1575C120.856 39.6182 120.803 39.0798 120.692 38.5518C120.612 38.1166 120.443 37.7024 120.195 37.3345C119.972 37.0254 119.675 36.7761 119.329 36.6093C118.939 36.4211 118.506 36.3321 118.071 36.3503C117.483 36.3156 116.898 36.4603 116.395 36.7647C115.962 37.0658 115.647 37.5048 115.503 38.0079C115.319 38.7007 115.231 39.4152 115.241 40.1316V40.4683C115.234 41.1759 115.322 41.8814 115.503 42.5661C115.661 43.0624 115.973 43.4972 116.395 43.8093C116.906 44.0918 117.487 44.2265 118.071 44.1978Z" fill="white"/>
<path d="M130.364 46.6322C129.967 46.622 129.572 46.5787 129.184 46.5027C128.732 46.4212 128.298 46.2636 127.899 46.0366C127.472 45.7868 127.12 45.4293 126.878 45.0006C126.596 44.4475 126.46 43.8325 126.484 43.2136C126.452 42.4802 126.654 41.7554 127.06 41.1417C127.452 40.5732 127.997 40.1246 128.634 39.8467C129.408 39.5053 130.229 39.2784 131.071 39.1733C132.096 39.0429 133.13 38.9823 134.163 38.992V37.9819C134.169 37.6643 134.115 37.3484 134.006 37.0496C133.879 36.7696 133.669 36.5345 133.403 36.3762C132.992 36.1975 132.542 36.1177 132.092 36.1431C131.638 36.1272 131.184 36.1975 130.756 36.3503C130.476 36.4423 130.237 36.6248 130.074 36.8683C129.948 37.0508 129.884 37.2686 129.892 37.4898V37.8006H127.114C127.114 37.7229 127.087 37.6453 127.087 37.5675V37.2827C127.088 36.6296 127.319 35.9974 127.742 35.4956C128.197 34.9537 128.796 34.5497 129.472 34.3302C130.304 34.0377 131.184 33.8973 132.067 33.9158C133.015 33.8826 133.961 34.0413 134.845 34.3819C135.512 34.6449 136.08 35.1064 136.469 35.7028C136.85 36.3272 137.041 37.0463 137.02 37.7748V43.4984C137.005 43.6194 137.021 43.7422 137.067 43.8554C137.113 43.9686 137.187 44.0685 137.282 44.146C137.443 44.259 137.634 44.3221 137.832 44.3273H138.566V46.2696L137.911 46.4769C137.551 46.5644 137.181 46.6079 136.811 46.6064C136.433 46.6105 136.059 46.54 135.709 46.3992C135.405 46.273 135.128 46.088 134.897 45.8553C134.682 45.5992 134.53 45.2981 134.452 44.9747H134.294C134.018 45.2983 133.702 45.5856 133.351 45.8294C132.958 46.0941 132.523 46.2951 132.067 46.4251C131.51 46.5674 130.937 46.6371 130.364 46.6322ZM131.228 44.3273C131.657 44.3303 132.082 44.2601 132.486 44.12C132.824 43.9941 133.131 43.7967 133.384 43.5418C133.638 43.2869 133.832 42.9805 133.954 42.6438C134.091 42.2702 134.162 41.8758 134.163 41.4783V40.9344C133.366 40.9303 132.569 40.9822 131.779 41.0898C131.165 41.1641 130.575 41.3672 130.049 41.6856C129.845 41.8224 129.68 42.0086 129.57 42.2261C129.46 42.4437 129.408 42.6856 129.42 42.9287C129.408 43.1828 129.472 43.4346 129.603 43.6539C129.751 43.8826 129.973 44.0559 130.232 44.146C130.549 44.2679 130.888 44.3295 131.228 44.3273Z" fill="white"/>
<path d="M143.939 46.6323C143.302 46.665 142.67 46.5021 142.131 46.1661C141.708 45.8942 141.386 45.4944 141.213 45.0265C141.035 44.5634 140.947 44.0715 140.951 43.5762V36.5057H139.457V34.2007H141.004L141.528 30.8079H143.782V34.2007H145.93V36.5057H143.782V43.2913C143.764 43.4314 143.781 43.5734 143.827 43.7066C143.874 43.8399 143.95 43.961 144.051 44.0607C144.152 44.1605 144.274 44.2363 144.409 44.2824C144.544 44.3286 144.688 44.344 144.83 44.3273H145.93V46.2697L145.354 46.4251L144.621 46.5805L143.939 46.6323Z" fill="white"/>
<path d="M148.499 32.3359V29.6424H151.329V32.3359H148.499ZM148.499 46.3474V34.2007H151.329V46.3474H148.499Z" fill="white"/>
<path d="M160.318 46.6323C159.162 46.6666 158.014 46.436 156.964 45.959C156.061 45.509 155.341 44.7692 154.92 43.861C154.434 42.7325 154.201 41.513 154.238 40.287C154.238 38.8107 154.474 37.6193 154.92 36.687C155.335 35.7812 156.058 35.0479 156.964 34.615C158.009 34.1167 159.16 33.8768 160.318 33.9158C161.681 33.9158 162.808 34.1489 163.699 34.615C164.593 35.0563 165.305 35.7879 165.717 36.687C166.162 37.6193 166.398 38.8107 166.398 40.287C166.437 41.513 166.204 42.7325 165.717 43.861C165.298 44.7618 164.588 45.4995 163.699 45.959C162.641 46.4391 161.484 46.6696 160.318 46.6323ZM160.318 44.3273C160.951 44.355 161.579 44.2022 162.127 43.887C162.607 43.5837 162.968 43.1267 163.149 42.592C163.377 41.8985 163.483 41.1714 163.463 40.4424V40.1057C163.483 39.3766 163.377 38.6496 163.149 37.9561C162.961 37.4253 162.602 36.9703 162.127 36.6611C161.568 36.3729 160.948 36.2224 160.318 36.2224C159.689 36.2224 159.068 36.3729 158.51 36.6611C158.036 36.9656 157.684 37.4234 157.515 37.9561C157.286 38.6496 157.18 39.3766 157.2 40.1057V40.4424C157.18 41.1714 157.286 41.8985 157.515 42.592C157.676 43.129 158.031 43.5893 158.51 43.887C159.058 44.2022 159.685 44.355 160.318 44.3273Z" fill="white"/>
<path d="M169.308 46.3474V34.2007H171.693L171.902 35.8064H172.085C172.37 35.4345 172.706 35.1034 173.081 34.8223C173.475 34.5302 173.919 34.3109 174.392 34.1747C174.913 33.9907 175.464 33.9028 176.017 33.9158C176.728 33.9129 177.433 34.0539 178.088 34.3302C178.681 34.6241 179.168 35.0952 179.476 35.677C179.843 36.2985 180 37.1272 180 38.1374V46.3474H177.117V38.6553C177.123 38.2971 177.079 37.9399 176.986 37.5935C176.892 37.3308 176.74 37.092 176.541 36.8942C176.331 36.7101 176.079 36.577 175.807 36.5057C175.508 36.4286 175.199 36.3937 174.89 36.4021C174.401 36.3823 173.917 36.5087 173.501 36.7647C173.082 37.006 172.738 37.3552 172.505 37.7748C172.257 38.2374 172.132 38.7537 172.138 39.277V46.3474H169.308Z" fill="white"/>
</svg>
