<svg width="93" height="93" viewBox="0 0 93 93" fill="none" xmlns="http://www.w3.org/2000/svg">
<path d="M46.5002 79.5346C64.7453 79.5346 79.5359 64.7441 79.5359 46.499C79.5359 28.2539 64.7453 13.4634 46.5002 13.4634C28.2552 13.4634 13.4646 28.2539 13.4646 46.499C13.4646 64.7441 28.2552 79.5346 46.5002 79.5346Z" stroke="white" stroke-width="2" stroke-miterlimit="10" stroke-dasharray="1 4"/>
<path d="M46.5 92C71.629 92 92 71.629 92 46.5C92 21.371 71.629 1 46.5 1C21.371 1 1 21.371 1 46.5C1 71.629 21.371 92 46.5 92Z" stroke="white" stroke-width="2" stroke-linecap="round" stroke-linejoin="round"/>
<path d="M46.5001 38.6741V54.3137" stroke="white" stroke-width="2" stroke-miterlimit="10"/>
<path d="M54.3256 46.4994H38.6748" stroke="white" stroke-width="2" stroke-miterlimit="10"/>
</svg>
