<svg width="698" height="106" viewBox="0 0 698 106" fill="none" xmlns="http://www.w3.org/2000/svg">
<path d="M65.3877 24.0175C64.3558 24.0175 63.4653 24.785 63.2816 25.8367L59.6207 45.5635H87.3671C91.7771 45.5635 95.9327 43.3606 98.3356 39.637C101.53 34.7195 103 29.1766 103 23.0084C103 5.61244 87.7204 0.396484 66.6739 0.396484H26.2205C23.4925 0.396484 21.1462 2.31516 20.5808 4.98709L0.424725 100.381C-0.126527 103.024 1.86648 105.497 4.55207 105.497H46.9278C73.4586 105.497 97.6712 94.3405 97.6712 66.3563V66.2142C97.6571 59.7475 92.4414 54.5174 86.0243 54.5174H57.967L52.9209 81.6915C51.9315 86.9785 47.3659 90.8159 42.0372 90.8159H23.6763L25.3583 81.8478H42.0513C43.0832 81.8478 43.9736 81.0804 44.1574 80.0429L48.8925 54.5174H31.0404L32.7224 45.5493H50.5604L54.5322 24.1739C55.5216 18.8868 60.0872 15.0353 65.4159 15.0353H87.4801L85.7981 24.0033H65.4159L65.3877 24.0175Z" fill="white"/>
<path d="M495.164 77.979C493.28 77.979 491.792 77.4842 490.701 76.4945C489.61 75.4553 489.065 74.0945 489.065 72.412C489.065 72.1645 489.114 71.6944 489.213 71.0016L497.172 26.0195H521.868C526.43 26.0195 530.05 26.9598 532.728 28.8402C535.406 30.6711 536.744 33.1702 536.744 36.3372C536.744 36.9805 536.67 37.6486 536.521 38.3414L535.852 42.0528C535.505 43.7352 534.786 45.3188 533.695 46.8033C532.604 48.2879 531.265 49.4755 529.678 50.3663V50.4405C531.612 51.1828 533.124 52.3209 534.215 53.855C535.356 55.389 535.926 57.1458 535.926 59.1252C535.926 59.4716 535.877 60.0406 535.777 60.8324L535.108 64.6923C534.414 68.8985 532.529 72.1645 529.455 74.4903C526.43 76.8161 522.463 77.979 517.554 77.979H495.164ZM519.264 47.5456C520.851 47.5456 522.215 47.0508 523.355 46.0611C524.546 45.0219 525.289 43.661 525.587 41.9785L526.033 39.4548C526.083 39.2568 526.108 38.9599 526.108 38.564C526.108 37.4259 525.661 36.5351 524.769 35.8918C523.876 35.2485 522.661 34.9269 521.124 34.9269H505.875L503.644 47.5456H519.264ZM517.256 69.0717C519.388 69.0717 521.124 68.6511 522.463 67.8098C523.802 66.9191 524.62 65.682 524.917 64.0984L525.513 60.8324C525.562 60.6345 525.587 60.3376 525.587 59.9417C525.587 58.754 525.141 57.8138 524.248 57.121C523.355 56.3787 522.165 56.0076 520.678 56.0076H502.156L499.85 69.0717H517.256Z" fill="white"/>
<path d="M546.521 77.979C544.636 77.979 543.149 77.4842 542.058 76.4945C540.967 75.4553 540.421 74.0945 540.421 72.412C540.421 72.1645 540.471 71.6944 540.57 71.0016L548.529 26.0195H588.175L586.613 34.9269H557.232L555.075 46.9518H582.225L580.663 55.8591H553.513L551.207 69.0717H580.588L578.952 77.979H546.521Z" fill="white"/>
<path d="M619.039 65.8799H599.476L592.782 77.979H581.699L611.229 26.0195H615.841C619.064 26.0195 620.998 27.5041 621.643 30.4732L631.759 77.979H621.419L619.039 65.8799ZM603.791 57.2695H617.775L614.204 38.564H614.13L603.791 57.2695Z" fill="white"/>
<path d="M645.792 26.0195H654.346L665.95 56.8983L688.042 26.0195H697.786L688.637 77.979H678.595L684.397 45.0961L669.967 64.8407C669.025 66.1273 668.107 67.0675 667.215 67.6614C666.372 68.2552 665.429 68.5521 664.388 68.5521H661.561L652.487 45.0961L646.685 77.979H636.643L645.792 26.0195Z" fill="white"/>
<path d="M144.9 26.0196H183.877L182.315 34.9269H153.603L151.149 48.8818H177.108L175.546 57.7891H149.587L146.016 77.9791H135.751L144.9 26.0196Z" fill="white"/>
<path d="M190.536 26.0196H200.801L191.652 77.9791H181.387L190.536 26.0196Z" fill="white"/>
<path d="M208.851 77.9791C206.917 77.9791 205.405 77.509 204.314 76.5688C203.223 75.5791 202.677 74.243 202.677 72.5605C202.677 72.2636 202.727 71.7687 202.826 71.0759L210.785 26.0196H221.05L213.463 69.0718H241.728L240.166 77.9791H208.851Z" fill="white"/>
<path d="M252.58 77.9791C250.696 77.9791 249.208 77.4843 248.117 76.4946C247.026 75.4554 246.481 74.0945 246.481 72.412C246.481 72.1646 246.53 71.6945 246.63 71.0017L254.589 26.0196H294.235L292.673 34.9269H263.291L261.134 46.9519H288.284L286.722 55.8592H259.572L257.266 69.0718H286.648L285.011 77.9791H252.58Z" fill="white"/>
<path d="M310.456 78.5729C305.15 78.5729 300.935 77.1626 297.811 74.3419C294.736 71.5213 293.199 67.7109 293.199 62.9109C293.199 61.7727 293.323 60.4118 293.571 58.8283L295.951 45.1704C297.042 38.9847 299.497 34.1599 303.315 30.696C307.183 27.1825 312.018 25.4258 317.82 25.4258H325.63C330.837 25.4258 334.953 26.7866 337.978 29.5083C341.002 32.23 342.515 35.8919 342.515 40.494C342.515 41.5827 342.391 42.8693 342.143 44.3539H332.027C332.176 43.5126 332.25 42.6961 332.25 41.9044C332.25 39.628 331.63 37.8218 330.39 36.4857C329.151 35.1496 327.415 34.4816 325.184 34.4816H317.373C314.448 34.4816 311.993 35.4713 310.009 37.4507C308.026 39.4301 306.737 42.1518 306.141 45.6158L303.91 58.383C303.712 59.7685 303.612 60.7335 303.612 61.2778C303.612 63.8016 304.257 65.8057 305.546 67.2903C306.836 68.7749 308.621 69.5171 310.902 69.5171H318.861C321.638 69.5171 323.969 68.5522 325.853 66.6222C327.787 64.6428 329.076 61.9212 329.721 58.4572H339.837C338.697 64.7913 336.242 69.7398 332.473 73.3028C328.704 76.8162 324.018 78.5729 318.415 78.5729H310.456Z" fill="white"/>
<path d="M362.113 78.5729C358.493 78.5729 355.344 77.9296 352.667 76.643C350.038 75.3069 348.005 73.4512 346.567 71.0759C345.129 68.6511 344.41 65.8552 344.41 62.6882C344.41 61.5995 344.534 60.2634 344.782 58.6799L347.162 45.3188C348.303 39.0342 350.782 34.1599 354.601 30.696C358.419 27.1825 363.328 25.4258 369.328 25.4258H377.213C382.767 25.4258 387.131 26.8608 390.305 29.731C393.528 32.5516 395.139 36.362 395.139 41.1621C395.139 42.3497 395.015 43.7353 394.767 45.3188L392.387 58.6799C391.296 64.9645 388.792 69.8635 384.875 73.377C381.007 76.8409 376.048 78.5729 369.998 78.5729H362.113ZM370.593 69.5171C373.618 69.5171 376.147 68.5274 378.18 66.548C380.213 64.5686 381.552 61.7974 382.197 58.2345L384.428 45.7642C384.577 44.7745 384.651 43.859 384.651 43.0178C384.651 40.3951 383.957 38.3167 382.569 36.7826C381.18 35.2486 379.246 34.4816 376.767 34.4816H368.882C365.907 34.4816 363.403 35.4713 361.369 37.4507C359.336 39.4301 357.997 42.2013 357.353 45.7642L355.121 58.2345C354.972 59.1747 354.898 60.0902 354.898 60.9809C354.898 63.6036 355.592 65.682 356.981 67.2161C358.369 68.7501 360.278 69.5171 362.708 69.5171H370.593Z" fill="white"/>
<path d="M406.567 26.0196H416.832L407.683 77.9791H397.418L406.567 26.0196Z" fill="white"/>
<path d="M426.816 26.0196H435.519L454.71 61.3521L460.958 26.0196H471L461.851 77.9791H453.148L433.957 42.6466L427.709 77.9791H417.667L426.816 26.0196Z" fill="white"/>
</svg>
