<svg width="537" height="169" viewBox="0 0 537 169" fill="none" xmlns="http://www.w3.org/2000/svg">
<path d="M104.922 38.1581C103.273 38.1581 101.85 39.3774 101.557 41.0483L95.7075 72.3888H140.04C147.087 72.3888 153.726 68.889 157.566 62.9731C162.67 55.1606 165.018 46.3545 165.018 36.555C165.018 8.91757 140.605 0.630859 106.977 0.630859H42.3411C37.9824 0.630859 34.2334 3.6791 33.3301 7.92407L1.12503 159.478C0.244252 163.678 3.42865 167.607 7.71964 167.607H75.427C117.817 167.607 156.504 149.882 156.504 105.423V105.197C156.482 94.9233 148.148 86.614 137.895 86.614H93.0652L85.0027 129.786C83.4218 138.186 76.127 144.282 67.6128 144.282H38.276L40.9635 130.035H67.6354C69.2841 130.035 70.7068 128.815 71.0004 127.167L78.5662 86.614H50.0423L52.7299 72.3662H81.2311L87.5772 38.4065C89.1581 30.0069 96.4528 23.8878 104.967 23.8878H140.221L137.533 38.1356H104.967L104.922 38.1581Z" fill="black"/>
<path d="M210.9 20.6251H249.877L248.315 29.5324H219.603L217.149 43.4873H243.108L241.546 52.3946H215.587L212.016 72.5846H201.751L210.9 20.6251Z" fill="black"/>
<path d="M256.536 20.6251H266.801L257.652 72.5846H247.387L256.536 20.6251Z" fill="black"/>
<path d="M274.851 72.5846C272.917 72.5846 271.405 72.1145 270.314 71.1742C269.223 70.1845 268.677 68.8484 268.677 67.1659C268.677 66.869 268.727 66.3742 268.826 65.6814L276.785 20.6251H287.05L279.463 63.6772H307.728L306.166 72.5846H274.851Z" fill="black"/>
<path d="M318.58 72.5846C316.696 72.5846 315.208 72.0897 314.117 71.1C313.026 70.0608 312.481 68.7 312.481 67.0175C312.481 66.7701 312.53 66.3 312.63 65.6072L320.589 20.6251H360.235L358.673 29.5324H329.291L327.134 41.5573H354.284L352.722 50.4647H325.572L323.266 63.6772H352.648L351.011 72.5846H318.58Z" fill="black"/>
<path d="M376.456 73.1784C371.15 73.1784 366.935 71.7681 363.811 68.9474C360.736 66.1268 359.199 62.3164 359.199 57.5163C359.199 56.3782 359.323 55.0173 359.571 53.4338L361.951 39.7759C363.042 33.5902 365.497 28.7654 369.315 25.3014C373.183 21.788 378.018 20.0312 383.82 20.0312H391.63C396.837 20.0312 400.953 21.3921 403.978 24.1138C407.002 26.8355 408.515 30.4974 408.515 35.0995C408.515 36.1882 408.391 37.4748 408.143 38.9594H398.027C398.176 38.1181 398.25 37.3016 398.25 36.5098C398.25 34.2335 397.63 32.4273 396.39 31.0912C395.151 29.7551 393.415 29.087 391.184 29.087H383.373C380.448 29.087 377.993 30.0768 376.009 32.0562C374.026 34.0356 372.737 36.7573 372.141 40.2212L369.91 52.9884C369.712 54.374 369.612 55.339 369.612 55.8833C369.612 58.4071 370.257 60.4112 371.546 61.8958C372.836 63.3803 374.621 64.1226 376.902 64.1226H384.861C387.638 64.1226 389.969 63.1576 391.853 61.2277C393.787 59.2483 395.076 56.5266 395.721 53.0627H405.837C404.697 59.3968 402.242 64.3453 398.473 67.9082C394.704 71.4217 390.018 73.1784 384.415 73.1784H376.456Z" fill="black"/>
<path d="M428.113 73.1784C424.493 73.1784 421.344 72.5351 418.667 71.2485C416.038 69.9124 414.005 68.0567 412.567 65.6814C411.129 63.2566 410.41 60.4607 410.41 57.2936C410.41 56.205 410.534 54.8689 410.782 53.2853L413.162 39.9243C414.303 33.6397 416.782 28.7654 420.601 25.3014C424.419 21.788 429.328 20.0312 435.328 20.0312H443.213C448.767 20.0312 453.131 21.4663 456.305 24.3365C459.528 27.1571 461.139 30.9675 461.139 35.7676C461.139 36.9552 461.015 38.3408 460.767 39.9243L458.387 53.2853C457.296 59.57 454.792 64.469 450.875 67.9824C447.007 71.4464 442.048 73.1784 435.998 73.1784H428.113ZM436.593 64.1226C439.618 64.1226 442.147 63.1329 444.18 61.1535C446.213 59.1741 447.552 56.4029 448.197 52.84L450.428 40.3697C450.577 39.38 450.651 38.4645 450.651 37.6232C450.651 35.0005 449.957 32.9222 448.569 31.3881C447.18 29.8541 445.246 29.087 442.767 29.087H434.882C431.907 29.087 429.403 30.0768 427.369 32.0562C425.336 34.0356 423.997 36.8067 423.353 40.3697L421.121 52.84C420.972 53.7802 420.898 54.6957 420.898 55.5864C420.898 58.2091 421.592 60.2875 422.981 61.8215C424.369 63.3556 426.278 64.1226 428.708 64.1226H436.593Z" fill="black"/>
<path d="M472.567 20.6251H482.832L473.683 72.5846H463.418L472.567 20.6251Z" fill="black"/>
<path d="M492.816 20.6251H501.519L520.71 55.9575L526.958 20.6251H537L527.851 72.5846H519.148L499.957 37.2521L493.709 72.5846H483.667L492.816 20.6251Z" fill="black"/>
<path d="M207.851 142.84C205.966 142.84 204.479 142.346 203.388 141.356C202.297 140.317 201.751 138.956 201.751 137.273C201.751 137.026 201.801 136.556 201.9 135.863L209.859 90.8809H234.554C239.117 90.8809 242.736 91.8211 245.414 93.7015C248.092 95.5325 249.431 98.0315 249.431 101.199C249.431 101.842 249.357 102.51 249.208 103.203L248.538 106.914C248.191 108.597 247.472 110.18 246.381 111.665C245.29 113.149 243.951 114.337 242.365 115.228V115.302C244.299 116.044 245.811 117.182 246.902 118.716C248.043 120.25 248.613 122.007 248.613 123.986C248.613 124.333 248.563 124.902 248.464 125.694L247.795 129.554C247.1 133.76 245.216 137.026 242.141 139.352C239.117 141.677 235.149 142.84 230.24 142.84H207.851ZM231.951 112.407C233.538 112.407 234.901 111.912 236.042 110.922C237.232 109.883 237.976 108.522 238.273 106.84L238.72 104.316C238.769 104.118 238.794 103.821 238.794 103.425C238.794 102.287 238.348 101.396 237.455 100.753C236.563 100.11 235.348 99.7882 233.81 99.7882H218.562L216.33 112.407H231.951ZM229.943 133.933C232.075 133.933 233.81 133.512 235.149 132.671C236.488 131.78 237.307 130.543 237.604 128.96L238.199 125.694C238.249 125.496 238.273 125.199 238.273 124.803C238.273 123.615 237.827 122.675 236.935 121.982C236.042 121.24 234.852 120.869 233.364 120.869H214.843L212.537 133.933H229.943Z" fill="black"/>
<path d="M259.207 142.84C257.323 142.84 255.835 142.346 254.744 141.356C253.653 140.317 253.108 138.956 253.108 137.273C253.108 137.026 253.157 136.556 253.257 135.863L261.216 90.8809H300.862L299.3 99.7882H269.918L267.761 111.813H294.911L293.349 120.72H266.199L263.893 133.933H293.275L291.638 142.84H259.207Z" fill="black"/>
<path d="M331.726 130.741H312.163L305.468 142.84H294.385L323.916 90.8809H328.527C331.751 90.8809 333.685 92.3654 334.329 95.3345L344.445 142.84H334.106L331.726 130.741ZM316.477 122.131H330.461L326.891 103.425H326.816L316.477 122.131Z" fill="black"/>
<path d="M358.479 90.8809H367.033L378.637 121.76L400.729 90.8809H410.473L401.324 142.84H391.282L397.084 109.957L382.653 129.702C381.711 130.989 380.794 131.929 379.901 132.523C379.058 133.117 378.116 133.413 377.075 133.413H374.248L365.173 109.957L359.371 142.84H349.33L358.479 90.8809Z" fill="black"/>
</svg>
