<svg width="102" height="47" viewBox="0 0 102 47" fill="none" xmlns="http://www.w3.org/2000/svg">
<path fill-rule="evenodd" clip-rule="evenodd" d="M51.9288 32.0805L58.4164 46.6326H65.1637L76.6047 20.9702H75.3467V20.9708H70.4072L61.8635 40.5836H61.7167L55.7713 26.8172L51.9288 32.0805ZM53.9821 22.6747L53.9817 22.6737L70.5349 0.000816981H63.4886L48.1796 20.9693H33.2749V0H27.6277V25.662H44.7535L29.4435 46.6319H36.4902L50.1033 27.986L50.1037 27.987L53.9821 22.6747ZM14.8787 0H0V25.6612H5.46385V16.7158H14.6314C22.0385 16.7158 24.4222 13.0864 24.4222 8.3572C24.4222 3.68191 21.985 0.0813343 14.8787 0ZM14.5946 12.2067C17.4183 12.2067 18.9583 10.7402 18.9583 8.3572C18.9583 5.93761 17.4183 4.47114 14.5946 4.47114H5.46385V12.2067H14.5946ZM96.2794 29.293C95.6562 26.3969 92.9059 25.2602 89.0556 25.2602C85.8286 25.2602 83.1151 26.1402 83.1151 28.1566C83.1151 30.1362 85.0218 30.8327 90.3389 31.3826C98.2229 32.1892 102 34.2787 102 39.3746C102 45.4236 95.5094 47 89.6057 47C82.8583 47 77.1012 44.6905 76.5145 38.3481H82.2349C82.8584 41.391 86.1953 42.3075 89.789 42.3075C93.2726 42.3075 96.1694 41.5743 96.1694 39.448C96.1694 37.395 94.9228 36.6985 89.6057 36.1118C82.5282 35.3054 77.3211 33.7656 77.3211 28.4864C77.3211 22.8041 82.8949 20.6044 89.2756 20.6044C95.2527 20.6044 101.45 22.6941 102 29.293H96.2794Z" fill="white"/>
</svg>
