<svg fill="none" height="162" viewBox="0 0 162 162" width="162" xmlns="http://www.w3.org/2000/svg" class="w-4 h-4"><title>USDFC</title><path d="M161.318 81.493c.101-14.909-3.424-28.357-10.173-39.085-13.748-24.578-40.035-41.25-70.15-41.25C36.728 1.158.72 37.17.67 81.442c-.1 14.909 3.425 28.356 10.173 39.084 13.748 24.579 40.036 41.25 70.15 41.25 44.267 0 80.274-36.011 80.324-80.283" fill="#EAAC00"></path><path d="M80.995 146.893c-36.073 0-65.417-29.349-65.417-65.426S44.922 16.04 80.995 16.04s65.417 29.348 65.417 65.426c0 36.077-29.345 65.426-65.417 65.426m0-122.29c-31.35 0-56.856 25.51-56.856 56.864s25.507 56.863 56.856 56.863 56.856-25.51 56.856-56.863-25.507-56.864-56.856-56.864" fill="#fff"></path><path d="M51.952 130.81q-1.648 0-3.334-.211c-8.677-1.093-17.107-6.507-23.13-14.863-6.561-9.106-9.991-20.968-9.915-34.294l8.56.05c-.1 18.117 8.819 38.51 25.553 40.615 10.178 1.275 18.255-5.963 21.6-19.381L82.4 58.137c2.225-8.935 6.405-16.037 12.076-20.534 5.449-4.317 11.98-6.14 18.895-5.274 8.677 1.093 17.107 6.508 23.13 14.863 6.562 9.107 9.991 20.968 9.916 34.295l-8.561-.05c.1-18.117-8.818-38.51-25.553-40.616-10.177-1.284-18.255 5.963-21.6 19.381L79.59 104.791c-2.226 8.935-6.406 16.037-12.077 20.535-4.562 3.616-9.885 5.479-15.56 5.479z" fill="#fff"></path><path d="m63.499 67.496-.566 8.543 36.762 2.436.566-8.544zm-1.135 17.087-.566 8.544 36.763 2.436.565-8.544z" fill="#fff"></path></svg>