<svg fill="none" xmlns="http://www.w3.org/2000/svg" viewBox="0 -0.03 242.25 38.03">
<path d="M28.6932 17.0962V11.5102L28.6455 11.4818C28.6455 11.4818 28.6441 11.4809 28.6432 11.4804L25.5556 9.6551L25.5438 9.64802H25.5433L23.8975 8.67536L20.8109 6.85051L19.2161 5.90809L19.1651 5.87786L16.1309 4.08466C16.1309 4.08466 16.1295 4.08372 16.1286 4.08372L16.0785 4.05396L16.0265 4.08466L12.9971 5.87503L11.3532 6.84674L8.2708 8.66828L6.62735 9.63998L6.61223 9.64849L3.52516 11.4733L3.47461 11.5031V17.0457L3.47508 26.4807L3.49634 26.493L6.61271 28.3344L6.70908 28.3911L6.736 28.4072L12.853 32.0228L12.8799 32.0389L16.079 33.9304H16.0794L19.1627 32.1074L19.2166 32.0758L25.5561 28.3283L28.6375 26.5067H28.638L28.6654 26.4902L28.6923 26.4746H28.6932V17.0957V17.0962ZM6.61223 13.292L9.68987 11.4823L11.3371 10.5134L14.428 8.69567L16.0757 7.7268L16.0785 7.72491V9.67116L16.0733 9.66833L12.9829 11.4856L11.3352 12.455L8.09224 14.362L6.61223 15.2326V13.292ZM16.078 15.2586L16.0672 15.252L12.8242 17.1595L6.61223 20.813V18.8724L11.1788 16.1869L14.4218 14.2793L16.069 13.3105L16.078 13.3053V15.2586ZM25.4701 24.6346L19.2161 28.3127L16.0785 30.1578L15.9434 30.2372L9.79946 26.6059L16.0785 22.9128L19.2161 21.0676V17.2488L19.2156 15.1707L20.9531 16.1977L20.9781 16.2124L24.2164 18.127L25.5551 18.9178V24.6847L25.4701 24.6346Z" fill="white"/>
<path d="M16.0785 19.0643L16.0629 19.0732L6.61271 24.6319L6.53618 24.6768L3.47603 26.4761L3.47508 26.4766V17.0774L3.47461 15.1373V11.5348L3.47556 11.5343L3.48028 11.5315L6.61223 9.68021L6.62688 9.67171L8.27033 8.70047L11.3527 6.87846L12.9966 5.90627L16.078 4.08521V7.72498L16.0752 7.72687L14.4275 8.69574L11.3371 10.5135L9.68987 11.4824L6.61223 13.2921V15.2327L8.09224 14.3621L11.3352 12.455L12.9824 11.4857L16.0728 9.6684L16.078 9.67123V13.3049L16.069 13.3105L14.4218 14.2794L11.1793 16.1865L6.61271 18.8725V20.8131L12.8242 17.1591L16.0672 15.2521L16.078 15.2587V15.2592L16.0785 19.0643Z" fill="black"/>
<path d="M32.1075 9.45858L28.994 7.61861L28.6931 7.44005L27.3491 6.64596L25.5559 5.58591L24.2625 4.82111L22.6172 3.84893L19.5306 2.02408L19.2164 1.83843L16.1312 0.014526C16.0991 -0.00484201 16.059 -0.00484201 16.0268 0.014526L12.6369 2.01747L9.55459 3.83995L7.91114 4.81166L6.61301 5.57883L4.82831 6.63368L3.47538 7.43296L3.18486 7.60491L0.0505462 9.45811C0.0193684 9.47653 0 9.51007 0 9.54597V28.4964L0.0188939 28.5073L3.25714 30.4214L3.47586 30.5509L6.61348 32.405L9.40106 34.0536L12.6398 35.9673L16.0788 38H16.0793L19.2169 36.1449L19.5225 35.9645L22.6054 34.1425L25.5559 32.3984L28.6935 30.5433L32.108 28.5252C32.1387 28.5063 32.1576 28.4733 32.1576 28.4374V9.54597C32.1576 9.51007 32.1387 9.47606 32.1075 9.45811V9.45858ZM28.6935 26.4746H28.6926L28.6657 26.4907L28.6383 26.5072H28.6378L25.5564 28.3287L19.2169 32.0762L19.163 32.1079L16.0797 33.9308H16.0793L12.8802 32.0389L12.8533 32.0228L6.7363 28.4071L6.70938 28.3911L6.61301 28.3344L3.49664 26.493L3.47538 26.4807V15.1055L3.47491 11.5612C3.47491 11.5508 3.47633 11.5404 3.47963 11.531C3.48672 11.5069 3.50326 11.4861 3.52546 11.4733L6.61254 9.64848L6.62765 9.63997L8.2711 8.66827L11.3535 6.84673L12.9974 5.87502L16.0268 4.08465C16.058 4.06576 16.0972 4.06528 16.1289 4.08371C16.1298 4.08371 16.1303 4.08418 16.1312 4.08465L19.1654 5.87785L19.2164 5.90808L20.8112 6.8505L23.8978 8.67535L25.5436 9.64801H25.5441L25.5559 9.65509L28.6435 11.4804C28.6435 11.4804 28.6454 11.4814 28.6458 11.4818C28.6676 11.4955 28.6827 11.5163 28.6898 11.5399C28.6912 11.5447 28.6921 11.5499 28.6926 11.5551C28.6931 11.5593 28.6935 11.564 28.6935 11.5687V20.7412L28.694 26.4755L28.6935 26.4746Z" fill="#AAAAAA"/>
<path d="M16.0779 13.3049V15.2587L16.067 15.2521L12.824 17.1592L6.61255 20.8131V18.8725L11.1792 16.1865L14.4217 14.2795L16.0689 13.3106L16.0779 13.3049Z" fill="white"/>
<path d="M16.0778 7.72485V9.67111L16.0726 9.66827L12.9823 11.4856L11.335 12.4549L8.09206 14.362L6.61206 15.2326V13.292L9.68969 11.4823L11.3369 10.5134L14.4273 8.69562L16.075 7.72674L16.0778 7.72485Z" fill="white"/>
<path d="M25.5555 18.9177V24.6846L25.4704 24.6345L19.216 28.3126L16.0788 30.1578L15.9432 30.2371L9.79932 26.6058L16.0788 22.9127L19.216 21.0675V20.9376L19.2155 17.2487V15.1707L20.953 16.1976L20.978 16.2123L24.2167 18.1269L25.5555 18.9177Z" fill="black"/>
<path d="M15.9433 30.2372L12.8808 32.0389L12.8529 32.0555L6.70898 28.4237L6.73685 28.4077L9.79937 26.606L15.9433 30.2372Z" fill="white"/>
<path d="M19.2161 20.9376V21.0675L16.079 22.9126L9.79948 26.6058L6.73696 28.4075L6.70909 28.4236L6.61272 28.3664L3.4751 26.5123V26.5061L3.4973 26.4934L6.56123 24.6912L6.61272 24.6614V24.661L16.079 19.0938L16.088 19.0886L19.2161 20.9376Z" fill="white"/>
<path d="M28.6649 26.5229L25.5556 28.361L19.2161 32.108L19.1623 32.1401L16.0795 33.9626H16.079V33.9621L12.853 32.0556L12.8809 32.039L15.9434 30.2373L16.079 30.158L19.2161 28.3128L25.4706 24.6348L25.5556 24.6848L28.638 26.5069H28.6385L28.6649 26.5229Z" fill="white"/>
<path d="M28.6922 17.1279V11.5419L28.6893 11.54L25.555 9.68729L25.5432 9.67974H25.5427L23.8969 8.70708L20.8103 6.88224L19.2155 5.93981L19.1645 5.90958L16.0779 4.08521V19.0638L16.0784 19.0827L16.0873 19.0884L19.2155 20.9373V17.2484L19.215 15.1703L20.9525 16.1973L20.9775 16.212L24.2158 18.1266L25.5545 18.9174V24.6843L28.6369 26.5063H28.6374L28.6638 26.5219L28.6917 26.5059V17.1275L28.6922 17.1279ZM25.5545 15.2733L24.0684 14.3947L24.0433 14.38L20.8046 12.4654L19.215 11.5254V9.5829L20.807 10.5239L22.4528 11.4966L25.5545 13.3299V15.2733Z" fill="white"/>
<path d="M25.5551 13.3302V15.2732L24.0689 14.3941L24.0439 14.3799L20.8052 12.4653L19.2156 11.5257V9.58276L20.8075 10.5238L22.4533 11.4964L25.5551 13.3302Z" fill="black"/>
<path d="M68.6494 24.1705V28.0039H51.4964C50.1359 28.0039 48.8581 27.7606 47.6634 27.2731C46.4683 26.7861 45.4295 26.1106 44.5471 25.2461C43.6646 24.3821 42.9655 23.3664 42.4511 22.1987C41.9362 21.0314 41.6787 19.7767 41.6787 18.4342C41.6787 17.0917 41.9362 15.8143 42.4511 14.656C42.9655 13.4977 43.6646 12.4868 44.5471 11.6223C45.4295 10.7583 46.4678 10.0828 47.6634 9.59529C48.8581 9.10826 50.1359 8.8645 51.4964 8.8645H68.6494V12.698H51.4964C50.871 12.698 50.2734 12.8038 49.7042 13.0149C49.134 13.2266 48.6238 13.5251 48.1736 13.9111C47.723 14.297 47.337 14.7618 47.0153 15.3037C46.6936 15.846 46.4683 16.4393 46.3398 17.0822H61.1483V20.9157H46.6983C47.1211 21.9086 47.7598 22.699 48.6148 23.2876C49.4699 23.8762 50.4302 24.17 51.4964 24.17H68.6494V24.1705Z" fill="white" stroke="white" stroke-width="0.236196" stroke-miterlimit="10"/>
<path d="M86.3263 8.86497C87.2456 8.86497 88.0817 9.10873 88.8357 9.59577C89.5891 10.0833 90.1498 10.7404 90.5178 11.5675L97.8257 28.0034H93.6342L91.952 24.17H76.7571L75.0475 28.0034H70.856L73.062 23.067C73.4295 22.2398 73.9903 21.5827 74.7442 21.0952C75.4977 20.6082 76.3253 20.3644 77.2262 20.3644H90.2424L87.1261 13.3598C87.0339 13.1576 86.8918 12.997 86.6986 12.877C86.5054 12.7575 86.2989 12.698 86.0783 12.698H82.6039C82.3833 12.698 82.1806 12.758 81.9973 12.877C81.8136 12.997 81.6756 13.1576 81.5835 13.3598L79.7081 17.5513H75.5166L78.1917 11.5671C78.5592 10.7399 79.12 10.0828 79.8739 9.59529C80.6274 9.10826 81.455 8.8645 82.3559 8.8645H86.3268L86.3263 8.86497Z" fill="white" stroke="white" stroke-width="0.236196" stroke-miterlimit="10"/>
<path d="M118.702 15.7317C120.21 15.7317 121.469 16.035 122.481 16.6415C123.491 17.2481 124.25 18.0025 124.756 18.9028C125.261 19.8037 125.514 20.7877 125.514 21.8534C125.514 22.9191 125.261 23.9036 124.756 24.804C124.25 25.7048 123.491 26.4587 122.481 27.0653C121.469 27.6718 120.21 27.9751 118.702 27.9751H99.7297V24.1417H118.702C119.493 24.1417 120.081 23.9031 120.467 23.4246C120.853 22.9465 121.042 22.4179 121.033 21.8388C121.023 21.2596 120.826 20.7315 120.44 20.2529C120.054 19.7749 119.475 19.5358 118.702 19.5358H105.052C103.691 19.5358 102.556 19.2737 101.646 18.7498C100.736 18.2259 100.055 17.5641 99.605 16.7643C99.1543 15.9646 98.9294 15.1053 98.9294 14.186C98.9294 13.2667 99.159 12.4075 99.6187 11.6077C100.078 10.8079 100.759 10.1461 101.659 9.62224C102.56 9.09836 103.691 8.83618 105.051 8.83618H123.555V12.6418H105.051C104.518 12.6418 104.113 12.8029 103.838 13.1246C103.562 13.4462 103.419 13.8001 103.41 14.1865C103.401 14.5724 103.534 14.9267 103.81 15.2484C104.086 15.5701 104.499 15.7312 105.051 15.7312H118.701L118.702 15.7317Z" fill="white" stroke="white" stroke-width="0.236196" stroke-miterlimit="10"/>
<path d="M152.897 8.83765V12.6432H141.674V28.004H137.4V12.6432H126.176V8.83765H152.898H152.897Z" fill="white" stroke="white" stroke-width="0.236196" stroke-miterlimit="10"/>
<path d="M173.415 8.75488C174.775 8.75488 176.052 8.99864 177.248 9.48567C178.442 9.97318 179.482 10.644 180.364 11.499C181.246 12.354 181.945 13.3654 182.46 14.5327C182.974 15.7005 183.232 16.9641 183.232 18.3246C183.232 19.6851 182.975 20.9218 182.46 22.0891C181.945 23.2568 181.246 24.2725 180.364 25.1365C179.482 26.001 178.443 26.6765 177.248 27.1635C176.052 27.651 174.775 27.8943 173.415 27.8943H163.818C162.457 27.8943 161.18 27.651 159.985 27.1635C158.79 26.6765 157.751 26.001 156.869 25.1365C155.986 24.2725 155.288 23.2568 154.773 22.0891C154.258 20.9218 154 19.6671 154 18.3246C154 16.9821 154.258 15.7005 154.773 14.5327C155.287 13.3654 155.986 12.354 156.869 11.499C157.751 10.644 158.789 9.97318 159.985 9.48567C161.18 8.99864 162.457 8.75488 163.818 8.75488H173.415ZM173.415 24.0599C174.15 24.0599 174.839 23.913 175.483 23.6187C176.126 23.3249 176.687 22.9247 177.165 22.4193C177.643 21.9138 178.02 21.312 178.295 20.6129C178.571 19.9142 178.709 19.1513 178.709 18.3241C178.709 17.497 178.571 16.7293 178.295 16.0212C178.019 15.3136 177.642 14.707 177.165 14.2011C176.687 13.6956 176.126 13.296 175.483 13.0017C174.839 12.7079 174.15 12.5605 173.415 12.5605H163.818C163.082 12.5605 162.393 12.7079 161.75 13.0017C161.106 13.296 160.546 13.6956 160.068 14.2011C159.59 14.707 159.213 15.3136 158.937 16.0212C158.661 16.7293 158.523 17.4965 158.523 18.3241C158.523 19.1517 158.661 19.9147 158.937 20.6129C159.213 21.3115 159.59 21.9138 160.068 22.4193C160.546 22.9252 161.106 23.3249 161.75 23.6187C162.393 23.913 163.082 24.0599 163.818 24.0599H173.415Z" fill="white" stroke="white" stroke-width="0.236196" stroke-miterlimit="10"/>
<path d="M203.915 8.83763C205.515 8.83763 206.87 9.14563 207.983 9.76163C209.095 10.3776 209.959 11.159 210.575 12.1056C211.191 13.0528 211.564 14.0958 211.692 15.2357C211.821 16.3761 211.701 17.4744 211.334 18.5311C210.966 19.5883 210.35 20.535 209.486 21.3716C208.622 22.2082 207.519 22.7826 206.177 23.0954L211.72 27.9766H205.212L200.91 24.1984C200.284 23.6287 199.54 23.3434 198.676 23.3434H189.713V28.004H185.439V23.8124C185.439 23.2059 185.55 22.6452 185.77 22.1303C185.991 21.6158 186.294 21.1652 186.68 20.7787C187.066 20.3923 187.521 20.0895 188.045 19.8689C188.569 19.6483 189.125 19.5378 189.714 19.5378H203.916C204.669 19.5378 205.295 19.3682 205.791 19.0276C206.287 18.6875 206.66 18.26 206.908 17.745C207.156 17.2306 207.28 16.6789 207.28 16.0903C207.28 15.5017 207.151 14.9504 206.894 14.4355C206.636 13.921 206.26 13.4935 205.764 13.1529C205.267 12.8128 204.651 12.6427 203.916 12.6427H185.826V8.83716H203.916L203.915 8.83763Z" fill="white" stroke="white" stroke-width="0.236196" stroke-miterlimit="10"/>
<path d="M240.923 24.1705V28.0039H223.771C222.41 28.0039 221.132 27.7606 219.938 27.2731C218.742 26.7861 217.704 26.1106 216.821 25.2461C215.939 24.3821 215.24 23.3664 214.725 22.1987C214.21 21.0314 213.953 19.7767 213.953 18.4342C213.953 17.0917 214.21 15.8143 214.725 14.656C215.24 13.4977 215.939 12.4868 216.821 11.6223C217.704 10.7583 218.742 10.0828 219.938 9.59529C221.132 9.10826 222.41 8.8645 223.771 8.8645H240.923V12.698H223.771C223.145 12.698 222.548 12.8038 221.978 13.0149C221.408 13.2266 220.898 13.5251 220.447 13.9111C219.997 14.297 219.611 14.7618 219.289 15.3037C218.967 15.846 218.742 16.4393 218.613 17.0822H233.422V20.9157H218.972C219.394 21.9086 220.034 22.699 220.888 23.2876C221.743 23.8762 222.703 24.17 223.77 24.17H240.922L240.923 24.1705Z" fill="white" stroke="white" stroke-width="0.236196" stroke-miterlimit="10"/>
</svg>