<svg xmlns="http://www.w3.org/2000/svg" fill="none" viewBox="-0.03 2.67 86.28 26.78">   <g fill="#fff" clip-path="url(#a)">     <path d="M77.634 26.174c-4.5 0-8.257-1.785-8.756-6.05a.243.243 0 0 1 .21-.268l4.618-.59a.258.258 0 0 1 .286.237c.185 2.124 1.688 3.084 3.758 3.084 2.195 0 3.311-.81 3.311-2.238 0-1.272-1.463-1.735-4.505-2.468-3.697-.887-7.087-2.045-7.087-6.017 0-4.243 3.736-5.902 7.896-5.902s7.726 1.377 8.327 5.59a.244.244 0 0 1-.201.274l-4.464.762a.258.258 0 0 1-.296-.23c-.206-1.966-1.449-2.847-3.29-2.847-1.579 0-2.888.578-2.888 1.928 0 1.312 1.387 1.775 3.967 2.353 3.427.771 7.702 1.697 7.702 6.287 0 4.63-4.082 6.095-8.588 6.095ZM65.862 7.799c1.54 1.542 1.733 3.625 1.733 6.132v11.827a.246.246 0 0 1-.247.248h-4.936a.249.249 0 0 1-.228-.154.248.248 0 0 1-.019-.094V14.394c0-1.774-.154-2.7-1.001-3.51-.694-.655-1.348-.771-2.504-.771-1.656 0-3.581 1.118-3.581 5.091v10.554a.247.247 0 0 1-.248.247h-4.897a.247.247 0 0 1-.247-.247V6.696a.248.248 0 0 1 .247-.248h4.859a.248.248 0 0 1 .247.248v2.099c0 .118.176.156.231.05 1.084-2.06 3.143-2.86 5.469-2.86 2.465 0 3.89.579 5.122 1.813m-20.442.644c1.87 1.905 2.812 4.8 2.891 8.465a.246.246 0 0 1-.238.25l-13.596.43a.243.243 0 0 0-.236.26c.211 3.069 1.794 4.592 4.606 4.504 2.372-.076 3.57-1.151 3.942-3.032a.256.256 0 0 1 .262-.208l4.736.268c.152.008.26.153.223.301-1.053 4.167-4.187 6.334-9.043 6.487-3.002.095-5.42-.793-7.086-2.323-1.904-1.753-2.909-4.268-3.011-7.507-.097-3.084.667-5.732 2.496-7.604 1.641-1.711 3.923-2.671 6.925-2.766 3.041-.097 5.458.792 7.13 2.475Zm-7.01 1.264c-1.58.05-2.68.548-3.382 1.535-.47.648-.745 1.45-.852 2.377a.24.24 0 0 0 .249.267l8.036-.255a.24.24 0 0 0 .227-.177.241.241 0 0 0 .006-.102c-.169-1.071-.509-1.968-1.17-2.624-.756-.748-1.73-1.065-3.115-1.02Z"/>     <path fill-rule="evenodd" d="M12.207 2.937c-.099-.15.083-.326.23-.223l6.175 4.322c3.891 2.724 5.683 7.587 4.45 12.17-.087.32-.187.636-.302.947-.06.165-.304.13-.316-.046-.104-1.492-1.178-3.198-1.959-4.437-.139-.22-.268-.427-.382-.614-.758-1.254-6.245-9.608-7.896-12.119ZM4.032 15.092l7.39-12.16c.086-.142-.068-.306-.215-.23-1.291.674-4.778 2.623-7.514 5.356-3 2.996-.576 6.282.075 7.055a.163.163 0 0 0 .264-.02m7.208 14.095c.098.15-.083.326-.23.223l-6.175-4.322C.944 22.365-.848 17.502.385 12.919c.098-.363.203-.681.302-.947.06-.165.303-.13.316.046.104 1.492 1.178 3.198 1.958 4.436.14.222.27.428.382.615.759 1.254 6.246 9.608 7.897 12.119Zm.785.004 7.39-12.16a.164.164 0 0 1 .265-.021c.65.772 3.075 4.059.075 7.054-2.737 2.733-6.223 4.682-7.515 5.356-.146.077-.3-.088-.215-.23Z" clip-rule="evenodd"/>   </g>   <defs>     <clipPath id="a">       <path fill="#fff" d="M0 0h86.222v32H0z"/>     </clipPath>   </defs> </svg>