<svg fill="none" xmlns="http://www.w3.org/2000/svg" viewBox="-0.03 -0.03 44.65 40.03">
<path fill-rule="evenodd" clip-rule="evenodd" d="M20.1054 0.000349597C31.0511 0.0653072 40.0318 9.02975 39.9505 20.1705C39.9346 22.4346 39.5373 24.5874 38.8376 26.6134C37.3459 24.9788 35.2184 23.938 32.8604 23.8802L32.7034 23.8777C29.5314 23.8589 26.7801 25.6018 25.341 28.1625C22.0847 28.4957 19.5422 31.2465 19.5422 34.5915L19.5428 34.6751C19.57 36.8244 20.6465 38.7209 22.2835 39.8759C21.5273 39.9619 20.7575 40.0046 19.9754 39.9996C8.94849 40.0483 -0.0484936 31.0189 0.000196701 19.9107C0.0489153 8.93244 9.01344 -0.0646129 20.1054 0.000349597ZM27.4295 7.2921C25.4321 7.21088 24.003 8.21787 22.8825 9.76064C21.7781 11.2873 21.2909 13.0735 20.755 14.8437C20.6088 15.3634 20.4788 15.8832 20.3164 16.4514C18.3838 16.1754 16.5163 15.8992 14.6 15.6232C14.535 16.1429 14.47 16.6302 14.405 17.1499C16.3052 17.4422 18.124 17.7183 19.9917 18.0105C19.7318 19.0823 19.5043 20.073 19.2608 21.0799C17.4257 20.8201 15.6718 20.5765 13.9178 20.3329C13.8528 20.9013 13.7879 21.3397 13.723 21.8432C15.4931 22.1192 17.1984 22.3791 18.9036 22.6389C18.9036 22.8338 18.936 22.9476 18.9036 23.045C18.3514 25.3672 17.8479 27.7221 17.2309 30.0283C16.9385 31.1325 16.4675 32.1881 15.5581 32.9676C14.8111 33.6009 13.9827 33.5034 13.4143 32.7078C13.1546 32.3505 12.9434 31.9282 12.6024 31.6846C12.3588 31.506 11.8067 31.3923 11.6281 31.5385C11.3682 31.7659 11.1733 32.2368 11.1896 32.5941C11.2059 32.9027 11.5143 33.2762 11.7903 33.4873C12.716 34.2019 13.8205 34.2993 14.9248 34.0882C16.7924 33.7146 18.1078 32.5454 18.9198 30.9051C19.5693 29.6221 20.0404 28.2417 20.495 26.8613C20.9011 25.6109 21.1772 24.3279 21.5019 23.0288C23.337 23.3049 25.1235 23.5646 26.9586 23.8244C27.1211 23.3048 27.2509 22.8176 27.3971 22.3142C25.4808 22.0219 23.6457 21.7619 21.8106 21.4858C22.038 20.3978 22.2327 19.4396 22.4439 18.384C24.1815 18.6277 25.8868 18.8712 27.6407 19.1149C27.7869 18.5952 27.9167 18.1405 28.0629 17.6208C26.2603 17.361 24.5388 17.101 22.6874 16.825C23.3208 14.6163 23.8567 12.5051 24.5225 10.4426C24.7336 9.76058 25.2371 9.12725 25.7406 8.59139C26.4064 7.90924 27.3159 8.05537 27.8843 8.8186C28.1117 9.12721 28.339 9.46831 28.6152 9.74437C28.9724 10.0854 29.5083 10.264 29.8655 9.923C30.0929 9.69561 30.2392 9.15973 30.1091 8.78617C29.9955 8.4776 29.9306 8.44516 29.8007 8.29899C29.1673 7.58442 28.3228 7.32464 27.4295 7.2921Z" fill="#0090FF"/>
<path fill-rule="evenodd" clip-rule="evenodd" d="M20.4789 26.8613C20.0241 28.2418 19.5532 29.6221 18.9036 30.9051C18.0915 32.5454 16.7761 33.7147 14.9085 34.0881C13.8042 34.2992 12.7 34.2019 11.7743 33.4873C11.4982 33.2762 11.1896 32.9026 11.1733 32.594C11.157 32.2367 11.352 31.7658 11.6118 31.5384C11.7904 31.3923 12.3427 31.506 12.5862 31.6846C12.9272 31.9283 13.1383 32.3505 13.3983 32.7078C13.9667 33.5036 14.7949 33.6009 15.5418 32.9676C16.4514 32.1881 16.9223 31.1325 17.2147 30.0282C17.8317 27.722 18.3352 25.3673 18.8873 23.0449C18.9199 22.9475 18.8873 22.8338 18.8873 22.6389C17.1821 22.3791 15.4769 22.1192 13.7067 21.8431C13.7717 21.3397 13.8368 20.9013 13.9017 20.3329C15.6556 20.5764 17.4095 20.8201 19.2446 21.0799C19.4883 20.073 19.7155 19.0823 19.9755 18.0106C18.1078 17.7183 16.289 17.4422 14.3889 17.1499C14.4538 16.6301 14.5188 16.1429 14.5837 15.6232C16.5001 15.8993 18.3676 16.1754 20.3002 16.4516C20.4627 15.8831 20.5925 15.3634 20.7387 14.8437C21.2746 13.0735 21.7619 11.2872 22.8662 9.76058C23.9867 8.21781 25.4159 7.21089 27.4134 7.29211C28.3066 7.32465 29.151 7.58445 29.7844 8.29903C29.9143 8.44519 29.9792 8.4776 30.093 8.78621C30.2229 9.15977 30.0767 9.69563 29.8493 9.92302C29.4921 10.264 28.9562 10.0855 28.5989 9.74431C28.3228 9.46824 28.0954 9.12723 27.8681 8.81862C27.2997 8.05537 26.3902 7.9092 25.7243 8.59136C25.221 9.12723 24.7176 9.76058 24.5064 10.4426C23.8405 12.5051 23.3047 14.6164 22.6713 16.825C24.5226 17.101 26.2441 17.361 28.0468 17.6208C27.9006 18.1405 27.7707 18.5951 27.6245 19.1149C25.8705 18.8712 24.1654 18.6277 22.4277 18.384C22.2165 19.4396 22.0217 20.3978 21.7943 21.4858C23.6294 21.7619 25.4645 22.0218 27.3809 22.3142C27.2347 22.8176 27.1048 23.3048 26.9424 23.8244C25.1073 23.5646 23.3208 23.3048 21.4857 23.0288C21.1772 24.3279 20.9012 25.6109 20.4789 26.8613Z" fill="white"/>
<path d="M32.6966 25.0267C35.5882 25.0439 38.1023 26.777 39.2362 29.2777H39.288C42.2228 29.2777 44.6036 31.6567 44.6037 34.5915C44.6037 37.5263 42.2246 39.9054 39.2898 39.9054H26.005C23.0703 39.9054 20.6912 37.5263 20.6912 34.5915C20.6912 31.6567 23.072 29.2777 26.0068 29.2777H26.0626C27.2023 26.7666 29.7391 25.0091 32.6966 25.0267Z" fill="white"/>
<path d="M39.2898 39.9054C42.2246 39.9054 44.6037 37.5263 44.6037 34.5915C44.6036 31.6568 42.2228 29.2777 39.288 29.2777H39.2362C38.1023 26.777 35.5882 25.0439 32.6966 25.0267C29.7392 25.0091 27.2023 26.7666 26.0626 29.2777H26.0068C23.072 29.2777 20.6912 31.6568 20.6912 34.5915C20.6912 37.5263 23.0703 39.9054 26.005 39.9054H39.2898ZM42.5356 34.5915C42.5356 36.3841 41.0824 37.8373 39.2898 37.8373H26.005C24.2124 37.8373 22.7593 36.3841 22.7593 34.5915L22.7603 34.5078C22.8047 32.7548 24.2413 31.3458 26.0068 31.3458H27.3951L27.9458 30.1324C28.7628 28.3323 30.5773 27.0823 32.6843 27.0948C34.741 27.1071 36.5406 28.3407 37.3526 30.1316L37.9031 31.3458H39.288C41.0815 31.3458 42.5355 32.7998 42.5356 34.5915Z" fill="url(#paint0_linear_282_856)"/>
<defs>
<linearGradient id="paint0_linear_282_856" x1="26.7399" y1="27.119" x2="36.5304" y2="39.9203" gradientUnits="userSpaceOnUse">
<stop stop-color="#39C1CB"/>
<stop offset="1" stop-color="#006FEC"/>
</linearGradient>
</defs>
</svg>