<svg fill="none" xmlns="http://www.w3.org/2000/svg" viewBox="0 0 222.62 28">
<path d="M213.867 27.8493C211.98 27.8493 210.345 27.4216 208.961 26.5662C207.603 25.7109 206.546 24.5033 205.791 22.9436C205.062 21.3587 204.697 19.5096 204.697 17.3964C204.697 15.2832 205.062 13.4467 205.791 11.887C206.546 10.3273 207.59 9.1197 208.923 8.26436C210.282 7.38385 211.879 6.9436 213.716 6.9436C215.452 6.9436 216.986 7.3587 218.32 8.18889C219.653 8.99392 220.697 10.1763 221.452 11.7361C222.206 13.2958 222.584 15.1952 222.584 17.4342V18.3776H208.018C208.144 20.5159 208.71 22.126 209.716 23.2078C210.747 24.2895 212.131 24.8304 213.867 24.8304C215.175 24.8304 216.244 24.5285 217.074 23.9247C217.93 23.2958 218.521 22.4782 218.848 21.4719L222.244 21.7361C221.716 23.5222 220.71 24.9939 219.225 26.1511C217.766 27.2832 215.98 27.8493 213.867 27.8493ZM208.018 15.5851H219.112C218.961 13.648 218.395 12.2266 217.414 11.321C216.433 10.4153 215.2 9.96247 213.716 9.96247C212.181 9.96247 210.911 10.4405 209.905 11.3964C208.923 12.3273 208.295 13.7235 208.018 15.5851Z" fill="white"/>
<path d="M182.75 27.3964V7.39643H185.655L185.769 12.4908L185.391 12.1512C185.643 10.9688 186.096 10.0002 186.75 9.24549C187.429 8.46562 188.234 7.887 189.165 7.50964C190.096 7.13228 191.077 6.9436 192.108 6.9436C193.643 6.9436 194.913 7.28323 195.92 7.96247C196.951 8.64172 197.731 9.55996 198.259 10.7172C198.787 11.8493 199.052 13.1197 199.052 14.5285V27.3964H195.882V15.4342C195.882 13.5725 195.517 12.1637 194.787 11.2078C194.058 10.2266 192.938 9.73606 191.429 9.73606C190.398 9.73606 189.467 9.96247 188.637 10.4153C187.806 10.843 187.14 11.4845 186.637 12.3398C186.159 13.17 185.92 14.2015 185.92 15.4342V27.3964H182.75Z" fill="white"/>
<path d="M168.01 27.3961V7.3961H171.179V27.3961H168.01ZM159.972 27.3961V24.6036H178.085V27.3961H159.972ZM160.349 10.1886V7.3961H171.179V10.1886H160.349ZM167.708 4.26403V0.565918H171.029V4.26403H167.708Z" fill="white"/>
<path d="M144.628 27.3962V5.96225C144.628 5.15722 144.402 4.52829 143.949 4.07546C143.496 3.62263 142.867 3.39621 142.062 3.39621H137.345V0.60376H142.213C144.049 0.60376 145.433 1.08175 146.364 2.03772C147.32 2.96854 147.798 4.35219 147.798 6.18866V27.3962H144.628ZM136.59 27.3962V24.6038H154.704V27.3962H136.59Z" fill="white"/>
<path d="M121.775 27.849C120.014 27.849 118.492 27.4214 117.208 26.566C115.925 25.7107 114.932 24.5031 114.227 22.9434C113.548 21.3836 113.208 19.5346 113.208 17.3962C113.208 15.2578 113.548 13.4088 114.227 11.849C114.932 10.2893 115.925 9.08175 117.208 8.2264C118.492 7.37106 120.014 6.94338 121.775 6.94338C123.183 6.94338 124.416 7.28301 125.473 7.96225C126.529 8.61634 127.297 9.35848 127.775 10.1887V0.60376H130.944V27.3962H128.076L127.963 24.3773C127.41 25.4591 126.592 26.3145 125.51 26.9434C124.429 27.5472 123.183 27.849 121.775 27.849ZM121.963 24.8302C123.171 24.8302 124.202 24.5283 125.058 23.9245C125.938 23.3207 126.605 22.4654 127.058 21.3585C127.536 20.2264 127.775 18.9056 127.775 17.3962C127.775 15.8365 127.536 14.5031 127.058 13.3962C126.605 12.2893 125.938 11.4465 125.058 10.8679C124.177 10.2641 123.12 9.96225 121.888 9.96225C120.253 9.96225 118.944 10.6289 117.963 11.9623C117.007 13.2704 116.529 15.0817 116.529 17.3962C116.529 19.6855 117.007 21.4968 117.963 22.8302C118.944 24.1635 120.278 24.8302 121.963 24.8302Z" fill="white"/>
<path d="M92.2424 27.3964V7.39643H95.1481L95.2613 12.4908L94.8839 12.1512C95.1355 10.9688 95.5883 10.0002 96.2424 9.24549C96.9217 8.46562 97.7267 7.887 98.6575 7.50964C99.5883 7.13228 100.569 6.9436 101.601 6.9436C103.136 6.9436 104.406 7.28323 105.412 7.96247C106.444 8.64172 107.224 9.55996 107.752 10.7172C108.28 11.8493 108.544 13.1197 108.544 14.5285V27.3964H105.375V15.4342C105.375 13.5725 105.01 12.1637 104.28 11.2078C103.551 10.2266 102.431 9.73606 100.922 9.73606C99.8902 9.73606 98.9594 9.96247 98.1292 10.4153C97.299 10.843 96.6324 11.4845 96.1292 12.3398C95.6512 13.17 95.4122 14.2015 95.4122 15.4342V27.3964H92.2424Z" fill="white"/>
<path d="M76.3708 27.8493C74.3834 27.8493 72.7985 27.1826 71.6161 25.8493C70.4337 24.4908 69.8425 22.6292 69.8425 20.2644V7.39648H73.0123V19.3965C73.0123 21.3336 73.352 22.7676 74.0312 23.6984C74.7356 24.604 75.8048 25.0569 77.2388 25.0569C78.7985 25.0569 80.0312 24.5537 80.9369 23.5474C81.8425 22.516 82.2954 21.1072 82.2954 19.321V7.39648H85.4652V27.3965H82.4463V22.4531L82.9369 22.7172C82.5344 24.3525 81.7671 25.6229 80.635 26.5286C79.5029 27.4091 78.0815 27.8493 76.3708 27.8493Z" fill="white"/>
<path d="M55.1396 27.8493C53.3032 27.8493 51.6931 27.4216 50.3095 26.5662C48.951 25.7109 47.8944 24.5033 47.1396 22.9436C46.3849 21.3587 46.0076 19.5096 46.0076 17.3964C46.0076 15.2581 46.3849 13.409 47.1396 11.8493C47.8944 10.2895 48.951 9.08197 50.3095 8.22662C51.6931 7.37128 53.3032 6.9436 55.1396 6.9436C56.9761 6.9436 58.5736 7.37128 59.9321 8.22662C61.3157 9.08197 62.3849 10.2895 63.1396 11.8493C63.8944 13.409 64.2717 15.2581 64.2717 17.3964C64.2717 19.5096 63.8944 21.3587 63.1396 22.9436C62.3849 24.5033 61.3157 25.7109 59.9321 26.5662C58.5736 27.4216 56.9761 27.8493 55.1396 27.8493ZM55.1396 24.8304C56.9761 24.8304 58.3975 24.1763 59.4038 22.8681C60.4352 21.5348 60.951 19.7109 60.951 17.3964C60.951 15.082 60.4352 13.2706 59.4038 11.9625C58.3975 10.6291 56.9761 9.96247 55.1396 9.96247C53.3032 9.96247 51.8692 10.6291 50.8378 11.9625C49.8315 13.2706 49.3283 15.082 49.3283 17.3964C49.3283 19.7109 49.8315 21.5348 50.8378 22.8681C51.8692 24.1763 53.3032 24.8304 55.1396 24.8304Z" fill="white"/>
<path d="M29.7969 27.3965V7.39648H32.4384L32.7403 12.4531L32.4384 12.3776C32.69 10.6669 33.2309 9.40906 34.0611 8.60403C34.9164 7.799 36.0485 7.39648 37.4573 7.39648H41.5705V10.2644H37.495C36.5139 10.2644 35.6837 10.4657 35.0045 10.8682C34.3504 11.2455 33.8472 11.8116 33.495 12.5663C33.1428 13.2959 32.9667 14.2141 32.9667 15.321V27.3965H29.7969ZM24.5894 27.3965V24.604H39.3063V27.3965H24.5894ZM24.5894 10.1889V7.39648H31.5328V10.1889H24.5894Z" fill="white"/>
<path d="M9.81132 28C7.92453 28 6.23899 27.4843 4.75472 26.4528C3.2956 25.3962 2.13837 23.8365 1.28302 21.7736C0.427673 19.6855 0 17.1069 0 14.0377C0 11.1447 0.389937 8.65409 1.16981 6.56604C1.97484 4.47799 3.1195 2.86792 4.60377 1.73585C6.08805 0.578616 7.87421 0 9.96226 0C11.5975 0 13.044 0.36478 14.3019 1.09434C15.5849 1.8239 16.6541 2.84277 17.5094 4.15094C18.3648 5.43396 18.9811 6.91824 19.3585 8.60377L15.9623 8.83019C15.5346 7.16981 14.8176 5.81132 13.8113 4.75472C12.8302 3.69811 11.5472 3.16981 9.96226 3.16981C8.57862 3.16981 7.39623 3.59748 6.41509 4.45283C5.43396 5.28302 4.67925 6.51572 4.15094 8.15094C3.6478 9.76101 3.39623 11.7233 3.39623 14.0377C3.39623 16.327 3.66038 18.2767 4.18868 19.8868C4.71698 21.4969 5.4717 22.7296 6.45283 23.5849C7.45912 24.4151 8.67925 24.8302 10.1132 24.8302C11.3962 24.8302 12.4906 24.5031 13.3962 23.8491C14.327 23.1698 15.0566 22.239 15.5849 21.0566C16.1132 19.8491 16.4025 18.478 16.4528 16.9434H10.0377V13.8491H19.4717V27.3962H16.4528L16.3019 21.0566L17.2075 21.3585C16.8553 22.6415 16.3648 23.7862 15.7358 24.7925C15.1321 25.7987 14.3396 26.5912 13.3585 27.1698C12.4025 27.7233 11.2201 28 9.81132 28Z" fill="white"/>
</svg>