<svg fill="none" xmlns="http://www.w3.org/2000/svg" viewBox="0 0 127.5 29.37">
<g clip-path="url(#clip0_2365_6873)">
<path d="M33.5221 29.3206L24.9733 29.342L16.5601 20.1879L20.8757 15.6685L33.5221 29.3206Z" fill="white"/>
<path d="M9.74372 0V13.7732L3.68408 7.36567V0H9.74372Z" fill="white"/>
<path d="M9.73631 27.3337L9.74372 29.3413H3.68408V20.9346L9.73631 27.3337Z" fill="white"/>
<path d="M33.6548 0.0419922L9.74053 25.0846L0 14.7857V5.72469L9.83475 16.1234L25.044 0.0419922H33.6548Z" fill="white"/>
<path d="M33.4694 29.3187L24.9343 29.3401L16.5344 20.1725L20.8434 15.6465L33.4694 29.3187Z" fill="white"/>
<path d="M9.72675 0.00366211V13.7514L3.67676 7.33453V0.00366211H9.72675Z" fill="white"/>
<path d="M9.71934 27.3301L9.72675 29.3408H3.67676V20.9216L9.71934 27.3301Z" fill="white"/>
<path d="M33.6012 0L9.72506 25.0793L0 14.7653V5.69105L9.81909 16.105L25.0042 0H33.6012Z" fill="white"/>
<path d="M58.2095 0.117188L51.5106 12.5755L44.7666 0.117188H37.5093L48.2791 18.3389V29.3424H54.6954V18.3389L65.4664 0.117188H58.2095Z" fill="white"/>
<path d="M92.1193 0.117188L84.3283 22.2914L76.6281 0.117188H69.6113L80.6784 29.3421H88.0254L99.0938 0.117188H92.1193Z" fill="white"/>
<path d="M109.805 23.5437V17.4793H123.995V11.7668H109.805V5.91585H127.157V0.117188H103.346V29.3421H127.499V23.5437H109.805Z" fill="white"/>
</g>
<defs>
<clipPath id="clip0_2365_6873">
<rect width="127.5" height="30" fill="white"/>
</clipPath>
</defs>
</svg>