<svg xmlns="http://www.w3.org/2000/svg" viewBox="0 0 147 52" fill="none">
  <path fill="#fff" d="M63.853 40.098c-3.42 0-5.54-1.685-6.056-4.809l1.854-.37c.37 2.2 1.771 3.33 4.099 3.33 2.245 0 3.81-1.07 3.81-2.59 0-1.335-1.216-2.26-4.181-3.123-3.604-1.027-5.15-2.548-5.15-4.685 0-2.445 2.02-3.965 5.253-3.965 3.151 0 5.046 1.438 5.684 4.191l-1.915.411c-.412-1.849-1.648-2.774-3.81-2.774-2.019 0-3.275.781-3.275 2.117 0 1.233 1.05 2.075 3.996 2.98 3.871 1.17 5.313 2.69 5.313 4.848 0 2.692-2.204 4.439-5.622 4.439ZM76.295 39.954c-1.978 0-2.78-.76-2.78-2.692v-6.863h-1.813v-1.788h1.812V25.51h1.854v3.102h2.203V30.4h-2.203v6.596c0 .924.412 1.11 1.01 1.11h1.297v1.766a14.66 14.66 0 0 1-1.38.083ZM85.174 39.953c-3.213 0-5.684-2.445-5.684-5.753 0-3.308 2.471-5.774 5.684-5.774 3.214 0 5.685 2.466 5.685 5.774s-2.471 5.753-5.685 5.753Zm0-1.787c2.08 0 3.749-1.726 3.749-3.966s-1.668-3.945-3.749-3.945c-2.08 0-3.748 1.705-3.748 3.945 0 2.24 1.668 3.966 3.748 3.966ZM93.131 39.707V28.61h1.854v1.418c.906-1.171 1.998-1.603 3.708-1.5v2.116c-2.349-.123-3.708 1.048-3.708 3.226v5.836H93.13ZM104.125 39.953c-2.245 0-3.79-1.253-3.79-3.123 0-1.685 1.215-2.63 2.8-3.123 2.349-.74 4.305-.986 4.305-2.158 0-.801-.885-1.356-2.203-1.356-1.359 0-2.328.596-2.719 1.665l-1.751-.576c.557-1.808 2.183-2.856 4.511-2.856 2.616 0 4.181 1.315 4.181 3.843v5.178c0 .595.515.924 1.091.677v1.624a1.928 1.928 0 0 1-.885.205c-.845 0-1.545-.513-1.813-1.315a5.935 5.935 0 0 1-3.727 1.315Zm.082-1.787c1.297 0 2.677-.617 3.419-1.48v-2.815c-2.595 1.5-5.417 1.15-5.417 2.856 0 .925.845 1.439 1.998 1.439ZM117.03 39.953c-3.172 0-4.984-2.733-4.984-5.815 0-3.308 2.038-5.712 4.963-5.712 2.122 0 3.769 1.254 4.47 3.329l-1.792.452c-.515-1.377-1.545-1.952-2.637-1.952-1.874 0-3.11 1.726-3.11 3.883 0 2.178 1.277 3.986 3.069 3.986 1.298 0 2.245-.986 2.719-2.445l1.812.432c-.659 2.568-2.368 3.842-4.51 3.842ZM123.893 39.687V24.173h1.875v5.836c1.153-1.172 2.492-1.582 3.748-1.582 2.348 0 3.79 1.417 3.79 4.13v7.13h-1.854V32.7c0-1.787-.968-2.465-2.245-2.465a3.539 3.539 0 0 0-3.439 2.568v6.884h-1.875ZM139.714 39.953c-2.245 0-3.79-1.253-3.79-3.123 0-1.685 1.215-2.63 2.801-3.123 2.348-.74 4.305-.986 4.305-2.158 0-.801-.886-1.356-2.204-1.356-1.359 0-2.327.596-2.718 1.665l-1.751-.576c.556-1.808 2.183-2.856 4.51-2.856 2.616 0 4.181 1.315 4.181 3.843v5.178c0 .595.515.924 1.092.677v1.624a1.93 1.93 0 0 1-.885.205c-.845 0-1.545-.513-1.813-1.315a5.94 5.94 0 0 1-3.728 1.315Zm.083-1.787c1.297 0 2.677-.617 3.419-1.48v-2.815c-2.596 1.5-5.417 1.15-5.417 2.856 0 .925.844 1.439 1.998 1.439Z"/>
  <mask id="a" width="47" height="53" x="0" y="0" maskUnits="userSpaceOnUse" style="mask-type:luminance">
    <path fill="#fff" d="M0 0h46.918v52H0V0Z"/>
  </mask>
  <g fill="#fff" mask="url(#a)">
    <path d="M31.078 12.268h-9.356a.643.643 0 0 0-.633.633v33.727c0 1.553-.045 3.117 0 4.671v.066c0 .342.291.633.633.633h12.28a.643.643 0 0 0 .633-.633V39.092l-.633.633h12.28a.643.643 0 0 0 .634-.633V29.018c0-.514.007-1.03-.013-1.544a15.743 15.743 0 0 0-.871-4.598 15.923 15.923 0 0 0-5.216-7.257 15.934 15.934 0 0 0-9.738-3.35c-.816 0-.816 1.262 0 1.264 2.952.008 5.831.899 8.267 2.566 2.312 1.584 4.18 3.88 5.229 6.484.549 1.364.908 2.809 1.025 4.276.05.628.05 1.255.05 1.885v8.62c0 .546-.032 1.105 0 1.65v.078l.633-.633h-12.28a.643.643 0 0 0-.633.633v12.273l.633-.633h-12.28l.633.633V14.472c0-.498.033-1.007 0-1.505V12.9l-.633.633h9.356c.815 0 .815-1.266 0-1.266Z"/>
    <path d="M45.837 38.644c-1.388 1.387-2.773 2.77-4.16 4.158l-6.604 6.6-1.517 1.515c-.577.577.32 1.47.897.896l4.16-4.158 6.603-6.6 1.517-1.515c.577-.577-.319-1.47-.896-.896ZM33.835 13.792c1.555.324 2.925 1.002 3.953 2.186.205.238.362.45.554.765.18.29.337.594.471.908 0 0 .023.053.056.144.025.069.053.14.076.21.058.17.114.342.162.514.094.334.162.676.215 1.02.015.104 0-.03.015.111l.026.25a9.373 9.373 0 0 1-.038 1.967c-.013.104.012-.091 0 .01-.005.04-.013.079-.018.119l-.046.263a8.361 8.361 0 0 1-.43 1.51l-.04.102c-.028.071.038-.086-.01.023-.117.256-.241.504-.386.741a9.05 9.05 0 0 1-1.84 2.166c-1.362 1.16-3.097 1.57-4.824 1.119-.888-.23-1.709-.683-2.613-.863-.967-.19-1.934-.008-2.603.764-.602.696-.909 1.567-.709 2.478.157.716.598 1.34.924 1.986.327.645.51 1.36.297 2.136-.183.666-.633 1.169-1.19 1.344a2.804 2.804 0 0 1-.35.08c.1-.012-.012 0-.027 0a3.045 3.045 0 0 1-.264.006c-.043 0-.088-.005-.132-.008-.106-.01 0 0-.063-.01a2.087 2.087 0 0 1-.947-.415c-.483-.364-.747-.921-.954-1.529-.438-1.288-.61-2.53-.714-3.79a8.624 8.624 0 0 1-.018-.258c-.048-.81-1.314-.815-1.266 0 .066 1.14.233 2.295.499 3.408.387 1.62 1.104 3.282 2.863 3.76 1.76.479 3.566-.786 3.864-2.616.16-.974-.063-1.87-.504-2.74-.174-.345-.372-.674-.547-1.018a6.844 6.844 0 0 1-.121-.255 2.19 2.19 0 0 1-.043-.117c-.025-.078-.05-.154-.071-.235a2.016 2.016 0 0 1-.025-.119c-.026-.116 0 .03-.005-.043a1.67 1.67 0 0 1 0-.276c0-.018.017-.121 0-.02.007-.043.017-.086.027-.13a1.45 1.45 0 0 1 .218-.49c.226-.364.527-.625.922-.696.304-.053.719.038 1.084.147.465.142.916.329 1.372.496 1.92.7 4.003.632 5.775-.435 2.841-1.714 4.414-4.958 4.254-8.222-.073-1.5-.48-3.006-1.301-4.274-.912-1.41-2.259-2.427-3.824-3.012a9.339 9.339 0 0 0-1.352-.384c-.334-.071-.683.098-.78.443-.086.313.107.708.444.779h-.016Z"/>
    <path d="M33.049 20.624a4.406 4.406 0 0 0-2.872-4.087c-1.714-.643-3.668-.086-4.803 1.288-1.165 1.412-1.36 3.447-.41 5.028.95 1.582 2.8 2.371 4.6 2.03 2.021-.382 3.462-2.235 3.487-4.259.01-.815-1.256-.815-1.266 0-.015 1.268-.802 2.472-2.02 2.897-1.218.426-2.664.059-3.495-.992-.83-1.05-.86-2.442-.19-3.53.672-1.088 1.99-1.662 3.234-1.396a3.12 3.12 0 0 1 2.471 3.023c.01.815 1.276.815 1.266 0l-.002-.002Z"/>
    <path d="M28.699 21.95a1.326 1.326 0 1 0 0-2.653 1.326 1.326 0 0 0 0 2.653ZM21.723 10.827h17.952c3.593 0 5.358-2.416 5.684-3.788.327-1.371-1.321-4.833-5.332-.521 0 0 2.393-4.636-.81-5.681s-6.885 2.156-8.343 5.225c0 0 .174-3.788-3.125-2.872-3.299.916-6.028 7.64-6.028 7.64l.002-.003Z"/>
    <path d="M21.722 11.46H39.49c1.337 0 2.66-.253 3.821-.939 1.162-.685 2.34-1.92 2.659-3.315.228-.991-.177-2.183-.957-2.836-1.276-1.07-2.915-.438-4.087.463-.486.374-.93.792-1.347 1.237l.995.767a9.32 9.32 0 0 0 .648-1.66c.284-.977.459-2.116.112-3.102C40.87.749 39.633.13 38.294.017c-1.582-.136-3.167.56-4.415 1.48-1.492 1.101-2.748 2.57-3.553 4.244l1.18.32a4.662 4.662 0 0 0-.362-1.982c-.22-.524-.562-.98-1.046-1.288-.6-.382-1.326-.428-2.013-.322-1.42.22-2.57 1.19-3.476 2.247-.907 1.058-1.714 2.331-2.39 3.601a25.665 25.665 0 0 0-1.11 2.341c-.129.317.14.696.444.78.362.098.65-.124.78-.443.053-.13.007-.018-.008.015.05-.114.099-.23.152-.347.177-.397.365-.79.56-1.177.574-1.136 1.217-2.244 1.977-3.266.35-.471.803-.992 1.268-1.425.254-.233.388-.347.646-.519a4.381 4.381 0 0 1 .537-.311c.03-.015.225-.099.122-.058.268-.107.638-.2.848-.22.142-.013.283-.01.428-.008.03 0 .06.005.09.008-.116-.013-.017 0 .006 0a2.057 2.057 0 0 1 .364.106c-.134-.056.023.015.054.035.048.03.096.058.144.091.013.008.076.059.013.008-.071-.058.033.03.045.043.033.033.069.066.099.099.013.015.124.146.07.078-.05-.063.041.06.06.086.032.05.065.104.093.16.028.055.055.108.08.164.049.096-.032-.101.016.038.038.111.079.223.109.337.03.108.053.217.076.326l.023.137c.03.17-.003-.074.002.015.015.215.04.43.033.648-.028.607.907.888 1.18.318a10.634 10.634 0 0 1 2.661-3.439c.977-.835 2.223-1.571 3.535-1.662.557-.038 1.243.048 1.678.266.251.126.312.164.482.336.04.04.08.084.116.13-.084-.102.028.04.038.052.06.097.117.193.162.294-.058-.127.015.038.02.056.018.053.036.106.051.159.025.091.043.182.06.276.036.185-.01-.13.008.058.005.058.01.114.013.172.008.127.008.253.003.377a6.803 6.803 0 0 1-.023.322c0 .015-.025.207-.005.063a6.72 6.72 0 0 1-.177.84c-.11.4-.246.787-.403 1.17.066-.16 0-.003-.028.062-.023.05-.045.102-.068.15-.02.045-.043.088-.066.134-.317.615.48 1.313.995.767.382-.408.782-.808 1.23-1.147.3-.225.732-.493 1-.6.155-.06.312-.103.474-.141.028-.008.056-.01.084-.015.098-.018-.102.007-.005 0 .078-.006.154-.01.233-.01.045 0 .24.022.073 0 .053.007.106.017.16.032.058.015.113.036.172.053.083.026-.107-.05-.028-.012.033.015.066.03.096.048a2.827 2.827 0 0 1 .215.137s-.096-.081-.045-.033c.088.08.172.164.253.255.066.076-.06-.104.028.04.025.044.053.082.078.125.028.048.056.096.081.146.023.046.094.226.03.059.036.096.072.192.097.29.015.051.025.104.038.155.013.056.03.24.013.043.007.091.017.182.017.273 0 .04 0 .081-.002.122 0 .023-.005.045-.005.066 0 .106.043-.134.005-.04-.036.088-.048.194-.079.288l-.053.151c-.06.167.03-.043-.053.122a6.007 6.007 0 0 1-.443.749 3.529 3.529 0 0 1-.233.288 5.456 5.456 0 0 1-.398.405c-.27.248-.524.436-.866.633-.975.567-2.063.746-3.177.746h-13c-1.552 0-3.111-.043-4.664 0h-.073c-.815 0-.815 1.266 0 1.266l-.003.007ZM21.893 32.348c-1.752-.6-3.502-1.2-5.254-1.802l-.745-.256.152 1.157 5.26-2.278c.245-.106.493-.212.739-.321.314-.137.384-.595.227-.865-.19-.324-.551-.365-.865-.228l-5.26 2.277c-.245.107-.493.213-.739.322-.542.235-.309 1 .152 1.156 1.752.6 3.502 1.2 5.254 1.802l.745.255c.772.266 1.104-.956.336-1.22h-.002Z"/>
    <path d="m22.17 26.683-5.243-4.275c-.25-.205-.502-.41-.755-.614l-.448 1.08h5.998c.816 0 .816-1.265 0-1.265h-5.998c-.509 0-.889.721-.448 1.08l5.244 4.274c.25.205.501.41.754.615.266.215.636.258.896 0 .223-.222.266-.678 0-.895Z"/>
    <path d="M34.003 13.181c6.718 1.367 6.978 8.68 4.824 11.947-1.894 2.872-4.378 4.18-7.318 3.396-1.681-.448-3.567-1.845-4.79.073-1.287 2.017 1.329 3.128 1.002 5.542-.326 2.414-2.815 3.065-4.378 1.503-1.364-1.364-1.617-5.797-1.617-5.797V12.9l12.28.281h-.003Zm-1.972 7.44a3.33 3.33 0 0 0-3.332-3.33 3.33 3.33 0 1 0 0 6.66 3.33 3.33 0 0 0 3.332-3.33Z"/>
    <path fill-rule="evenodd" d="M16.79 27.077a.173.173 0 0 1-.036.017l-.036.019c-.464.237-.913.467-1.37.766-.32.208-.604.471-.886.733-.144.133-.287.266-.434.39-.633.534-1.314 1.02-2.066 1.37-.863.402-1.77.65-2.78.617-1.01-.033-2.003-.319-2.935-.688-.8-.32-1.572-.704-2.314-1.142l-.01-.005c-.118-.07-.245-.143-.223-.3.018-.122.104-.188.223-.2.076-.009.163.014.246.037.047.012.093.024.136.03.147.023.294.036.44.036.226 0 .449-.028.667-.088.41-.117 1.372-.646 1.137-1.223-.12-.296-.527-.445-.8-.534-.517-.167-1.064-.227-1.608-.248-.545-.02-1.056-.043-1.585-.187a8.11 8.11 0 0 1-1.406-.534l-.076-.036c-.312-.149-.645-.307-.924-.51-.104-.076-.192-.175-.134-.314.056-.131.19-.15.32-.168.035-.005.07-.01.103-.017 1.099-.235 1.99-1.164 2.643-2.024.11-.145.21-.296.31-.448.18-.273.36-.545.594-.772a3.38 3.38 0 0 1 1.043-.676c.327-.14.666-.235 1.016-.296l.091-.018c.077-.016.159-.033.235-.038a.952.952 0 0 1-.15-.13c-.041-.04-.08-.079-.118-.105a3.909 3.909 0 0 0-.662-.366c-.111-.049-.223-.098-.242-.234-.041-.321.575-.4.899-.442.053-.007.098-.012.132-.018 1.696-.284 3.342.197 4.686 1.252a9.346 9.346 0 0 1 1.56 1.587c.199.253.376.523.553.793.197.301.395.602.622.88.643.784 1.53 1.354 2.42 1.817.077.039.166.076.26.116.273.115.58.245.705.473.158.29.046.614-.204.796a.16.16 0 0 1-.042.03v.002Zm-7.831.002a.148.148 0 0 1 .134-.233c1.666.145 1.418-1.151.626-1.73-.59-.43-1.585-.51-2.12-.479-.157.008-.212-.207-.07-.278 1.344-.683 3.448-.716 4.793.36 1.55 1.24 1.55 2.48-.62 3.1-1.601.457-2.421-.307-2.743-.74Z" clip-rule="evenodd"/>
  </g>
</svg>
