<svg fill="currentColor" xmlns="http://www.w3.org/2000/svg" viewBox="0 0 71.5 20">
<g clip-path="url(#clip0_297_1387)">
<path d="M19.1191 0C19.6125 0 20.0127 0.400223 20.0127 0.893555V19.1064C20.0127 19.5998 19.6125 20 19.1191 20H0.90625C0.412919 20 0.0126953 19.5998 0.0126953 19.1064V0.893555C0.0126953 0.400223 0.412918 0 0.90625 0H19.1191ZM12.373 4.16895C12.0316 4.16895 11.7007 4.21453 11.3867 4.30078C10.4017 4.57115 9.57952 5.23667 9.10254 6.11621L7.57227 4.58496C7.42209 4.43473 7.16504 4.54144 7.16504 4.75391V5.7832C6.92888 5.69824 6.67373 5.65137 6.4082 5.65137C6.33574 5.65138 6.26404 5.65526 6.19336 5.66211C6.04137 5.67657 5.89336 5.70565 5.75195 5.74902L4.58789 4.58496C4.43767 4.43506 4.18164 4.54155 4.18164 4.75391V8.07031C4.20102 8.3087 4.25736 8.5366 4.3457 8.74805C4.4582 9.01763 4.62212 9.26094 4.8252 9.46484C5.19198 9.83298 5.68653 10.0733 6.23633 10.1152H13.8555V10.123C13.8555 10.5663 13.778 10.9915 13.6357 11.3857C13.1188 12.8177 11.7476 13.8418 10.1377 13.8418C9.20608 13.8418 8.35461 13.4989 7.70215 12.9326L7.57422 12.8164C7.51731 12.7623 7.46168 12.7063 7.4082 12.6484C7.01104 12.2856 6.48267 12.0636 5.90234 12.0635C5.44058 12.0635 5.0114 12.2043 4.65527 12.4443C4.7497 12.6667 4.85867 12.8861 4.98242 13.1006C5.64057 14.2408 6.61903 15.0813 7.73828 15.5732C9.4144 16.3101 11.4071 16.2661 13.1143 15.2803C15.0581 14.1576 16.1297 12.1033 16.0908 10.0068V7.8877C16.0908 7.83283 16.0893 7.77787 16.0869 7.72363C16.0011 5.74614 14.3712 4.16913 12.373 4.16895Z" fill="#currentColor"/>
<path d="M25.8463 17.8201V2.29338C25.8463 2.22505 25.9013 2.16838 25.9713 2.16838H34.6763C34.7446 2.16838 34.8013 2.22338 34.8013 2.29338V4.70838C34.8013 4.77672 34.7463 4.83338 34.6763 4.83338H29.0196C28.9513 4.83338 28.8947 4.88838 28.8947 4.95838V8.05671C28.8947 8.12506 28.9497 8.18169 29.0196 8.18169H33.7796C33.848 8.18169 33.9046 8.23671 33.9046 8.30675V10.7217C33.9046 10.79 33.8497 10.8467 33.7796 10.8467H29.0196C28.9513 10.8467 28.8947 10.9017 28.8947 10.9717V17.8217C28.8947 17.89 28.8396 17.9467 28.7697 17.9467H25.9713C25.903 17.9467 25.8463 17.8917 25.8463 17.8217V17.8201Z" fill="#currentColor"/>
<path d="M44.8547 17.9451C43.818 17.9451 43.0747 17.715 42.6264 17.2517C42.178 16.79 41.9547 16.0834 41.9547 15.13V2.29338C41.9547 2.22505 42.0097 2.16838 42.0797 2.16838H44.8147C44.8831 2.16838 44.9397 2.22338 44.9397 2.29338V15.4967C44.9397 15.5651 44.9947 15.6217 45.0647 15.6217H46.0713C46.1414 15.6217 46.1964 15.6767 46.1964 15.7467V17.8201C46.1964 17.8884 46.1414 17.9451 46.0713 17.9451H44.853H44.8547Z" fill="#currentColor"/>
<path d="M36.8031 6.74153H39.5381C39.6064 6.74153 39.6631 6.7982 39.6631 6.86653V17.8199C39.6631 17.8882 39.6064 17.9449 39.5381 17.9449H36.8031C36.7347 17.9449 36.6781 17.8882 36.6781 17.8199V6.86653C36.6781 6.7982 36.7347 6.74153 36.8031 6.74153Z" fill="#currentColor"/>
<path d="M38.1714 5.57838C39.1131 5.57838 39.8764 4.81505 39.8764 3.87338C39.8764 2.93171 39.1114 2.16838 38.1714 2.16838C37.2314 2.16838 36.4664 2.93171 36.4664 3.87338C36.4664 4.81505 37.2297 5.57838 38.1714 5.57838Z" fill="#currentColor"/>
<path d="M61.2849 6.43341C60.9398 5.43175 60.4565 4.61341 59.8365 3.97675C59.2165 3.34008 58.4649 2.88008 57.5849 2.59508C56.7049 2.30842 55.7232 2.16675 54.6365 2.16675C53.5498 2.16675 52.5665 2.30842 51.6865 2.59508C50.8065 2.88008 50.0565 3.34008 49.4348 3.97675C48.8131 4.61341 48.3315 5.43175 47.9865 6.43341C47.6415 7.43506 47.4698 8.65176 47.4698 10.0851C47.4698 11.5184 47.6415 12.7351 47.9865 13.7367C48.3315 14.7384 48.8148 15.5567 49.4348 16.1934C50.0548 16.8301 50.8065 17.2901 51.6865 17.5751C52.5665 17.8617 53.5498 18.0034 54.6365 18.0034C55.7232 18.0034 56.7065 17.8617 57.5849 17.5751C58.4649 17.2901 59.2148 16.8301 59.8365 16.1934C60.4565 15.5567 60.9398 14.7384 61.2849 13.7367C61.6298 12.7351 61.8032 11.5184 61.8032 10.0851C61.8032 8.65176 61.6298 7.43506 61.2849 6.43341ZM58.5748 11.1851C58.5748 13.4318 56.8115 15.2518 54.6348 15.2518C52.4582 15.2518 50.6948 13.4301 50.6948 11.1851V8.98509C50.6948 6.73842 52.4582 4.91842 54.6348 4.91842C56.8115 4.91842 58.5748 6.74008 58.5748 8.98509V11.1851Z" fill="#currentColor"/>
<path d="M63.0851 17.8219V15.6419C63.0851 15.6152 63.0934 15.5886 63.1101 15.5669L67.8635 9.27024C67.9268 9.18856 67.8668 9.07024 67.7635 9.07024H63.3801C63.3118 9.07024 63.2551 9.01523 63.2551 8.94526V6.86857C63.2551 6.80024 63.3118 6.74358 63.3801 6.74358H71.2402C71.3104 6.74358 71.3652 6.79857 71.3652 6.86857V9.04856C71.3652 9.07523 71.3567 9.10189 71.3399 9.12358L66.5451 15.4202C66.4818 15.5019 66.5418 15.6219 66.6451 15.6219H71.3687C71.4381 15.6219 71.4936 15.6769 71.4936 15.7469V17.8219C71.4936 17.8902 71.4381 17.9469 71.3687 17.9469H63.2101C63.1401 17.9469 63.0851 17.8919 63.0851 17.8219Z" fill="#currentColor"/>
</g>
<defs>
<clipPath id="clip0_297_1387">
<rect width="71.5088" height="20" fill="currentColor"/>
</clipPath>
</defs>
</svg>